<svg width="352" height="107" viewBox="0 0 352 107" fill="none" xmlns="http://www.w3.org/2000/svg">
<path d="M310.432 33.6655V33.8029H310.569H311.139C311.946 33.8029 312.47 34.1438 312.801 34.7094C313.139 35.2862 313.281 36.1068 313.281 37.0645V50.1718C313.281 51.1295 313.139 51.9501 312.801 52.5269C312.47 53.0925 311.946 53.4334 311.139 53.4334H310.569H310.432V53.5708V53.7947V53.932H310.569H317.795H317.932V53.7947V53.5708V53.4334H317.795H317.225C316.418 53.4334 315.894 53.0925 315.562 52.5269C315.224 51.9501 315.082 51.1295 315.082 50.1718V46.7013C315.993 45.6331 317.242 44.1894 318.665 42.6076L327.926 53.8819L327.967 53.932H328.032H330.006H330.297L330.112 53.7075L319.89 41.2622C319.965 41.1796 320.041 41.0969 320.117 41.0142C321.717 39.2685 323.326 37.5136 324.918 36.167C326.615 34.7308 328.267 33.7826 329.844 33.7826H329.981V33.6452V33.4417V33.3043H329.844H321.58H321.443V33.4417V33.6248V33.7622H321.58C322.193 33.7622 322.738 33.8485 323.126 34.0765C323.502 34.2975 323.743 34.6583 323.743 35.2531C323.743 35.4351 323.671 35.6763 323.522 35.9766C323.374 36.2742 323.157 36.6173 322.882 36.9999C322.332 37.7648 321.559 38.6743 320.669 39.6724C320.103 40.3069 319.49 40.977 318.859 41.6672C317.596 43.0473 316.261 44.5075 315.082 45.9229V37.0645C315.082 36.1068 315.224 35.2862 315.562 34.7094C315.894 34.1438 316.418 33.8029 317.225 33.8029H317.795H317.932V33.6655V33.4417V33.3043H317.795H310.569H310.432V33.4417V33.6655Z" fill="#4E4F30" stroke="#4E4F30" stroke-width="0.274766"/>
<path d="M295.359 53.1077C293.27 53.1077 291.281 52.4501 289.815 51.0691C288.351 49.6898 287.396 47.576 287.396 44.6358C287.396 37.8641 292.736 34.1082 297.679 34.1082C299.797 34.1082 301.832 34.8007 303.336 36.2353C304.839 37.6684 305.825 39.8539 305.825 42.8651C305.825 49.3268 300.348 53.1077 295.359 53.1077ZM296.58 32.999C290.604 32.999 285.757 37.7803 285.757 43.6385C285.757 49.4974 290.604 54.2373 296.58 54.2373C302.555 54.2373 307.403 49.4974 307.403 43.6385C307.403 37.7803 302.556 32.999 296.58 32.999Z" fill="#4E4F30" stroke="#4E4F30" stroke-width="0.274766"/>
<path d="M270.684 53.1077C268.595 53.1077 266.606 52.4501 265.14 51.0691C263.676 49.6898 262.721 47.576 262.721 44.6358C262.721 37.8641 268.061 34.1082 273.004 34.1082C275.122 34.1082 277.157 34.8007 278.662 36.2353C280.164 37.6684 281.15 39.8539 281.15 42.8651C281.15 49.3268 275.673 53.1077 270.684 53.1077ZM271.905 32.999C265.929 32.999 261.082 37.7803 261.082 43.6385C261.082 49.4974 265.93 54.2373 271.905 54.2373C277.881 54.2373 282.728 49.4974 282.728 43.6385C282.728 37.7803 277.881 32.999 271.905 32.999Z" fill="#4E4F30" stroke="#4E4F30" stroke-width="0.274766"/>
<path d="M239.624 53.7947V53.932H239.761H246.986H247.124V53.7947V53.5708V53.4334H246.986H246.416C245.61 53.4334 245.085 53.0925 244.754 52.5269C244.416 51.9501 244.274 51.1295 244.274 50.1718V43.7555H246.76L255.369 53.8836L255.41 53.932H255.474H257.468H257.765L257.573 53.7057L249.115 43.7555H251.24C252.533 43.7555 254.229 43.5407 255.607 42.766C256.995 41.9859 258.053 40.6397 258.053 38.4078C258.053 36.598 257.229 35.3146 255.971 34.4895C254.72 33.6686 253.048 33.3043 251.342 33.3043H239.761H239.624V33.4417V33.6655V33.8029H239.761H240.331C241.137 33.8029 241.662 34.1438 241.993 34.7094C242.331 35.2862 242.473 36.1068 242.473 37.0645V50.1718C242.473 51.1295 242.331 51.9501 241.993 52.5269C241.662 53.0925 241.137 53.4334 240.331 53.4334H239.761H239.624V53.5708V53.7947ZM250.65 43.1755H244.274V33.8843H250.65C252.241 33.8843 253.644 34.2222 254.645 34.9519C255.639 35.6769 256.252 36.7991 256.252 38.4078C256.252 40.0693 255.637 41.2537 254.641 42.0264C253.64 42.8031 252.239 43.1755 250.65 43.1755Z" fill="#4E4F30" stroke="#4E4F30" stroke-width="0.274766"/>
<path d="M217.997 53.4334H217.859V53.5708V53.7947V53.932H217.997H230.331C231.731 53.932 233.293 53.6236 234.508 52.8071C235.731 51.9856 236.594 50.6558 236.594 48.6453C236.594 47.3037 236.059 46.0325 234.903 45.0867C233.923 44.2842 232.505 43.7224 230.607 43.5407C231.853 43.2233 232.911 42.7196 233.706 42.0219C234.715 41.136 235.292 39.9434 235.292 38.4485C235.292 36.6249 234.398 35.3329 233.136 34.5023C231.88 33.6751 230.259 33.3043 228.784 33.3043H217.997H217.859V33.4417V33.6655V33.8029H217.997H218.567C219.373 33.8029 219.898 34.1438 220.229 34.7094C220.567 35.2862 220.709 36.1068 220.709 37.0645V50.1718C220.709 51.1295 220.567 51.9501 220.229 52.5269C219.898 53.0925 219.373 53.4334 218.567 53.4334H217.997ZM222.51 50.1718V43.9591H228.255C230.114 43.9591 231.753 44.2932 232.922 45.0489C234.083 45.7988 234.793 46.9709 234.793 48.686C234.793 50.2852 234.174 51.4618 233.23 52.2411C232.283 53.0233 230.998 53.413 229.659 53.413H225.568C224.132 53.413 223.388 53.0567 222.99 52.5058C222.584 51.9431 222.51 51.1416 222.51 50.1718ZM226.952 43.4808H222.51V37.0645C222.51 36.0939 222.579 35.2928 222.983 34.7302C223.378 34.1798 224.122 33.8233 225.568 33.8233C225.719 33.8233 225.91 33.8283 226.101 33.8334L226.113 33.8337C226.299 33.8387 226.485 33.8436 226.627 33.8436C228.94 33.8436 230.606 34.3439 231.69 35.1666C232.77 35.9857 233.287 37.1343 233.287 38.4688C233.287 40.2013 232.647 41.4455 231.549 42.2612C230.444 43.0817 228.859 43.4808 226.952 43.4808Z" fill="#4E4F30" stroke="#4E4F30" stroke-width="0.274766"/>
<path d="M197.25 33.3043H197.113V33.4417V33.6452V33.7777L197.245 33.7825L197.815 33.8028C198.626 33.8318 199.152 34.1745 199.483 34.7329C199.821 35.3019 199.962 36.1069 199.962 37.0645V50.1718C199.962 51.1295 199.821 51.9554 199.482 52.5375C199.151 53.1085 198.626 53.4537 197.82 53.4537H197.25H197.113V53.5911V53.7947V53.932H197.25H214.693H214.83V53.7947V51.7797V51.5696L214.638 51.6538C211.084 53.2085 207.019 53.352 203.906 53.352C203.096 53.352 202.572 53.0285 202.242 52.4845C201.906 51.9288 201.764 51.1298 201.764 50.1718V43.7555H214.082H214.22V43.6182V42.1934V42.0561H214.082H201.764V37.0645C201.764 36.1065 201.906 35.3075 202.242 34.7518C202.572 34.2078 203.096 33.8843 203.906 33.8843C207.019 33.8843 211.084 34.0278 214.638 35.5825L214.83 35.6667V35.4566V33.4417V33.3043H214.693H197.25Z" fill="#4E4F30" stroke="#4E4F30" stroke-width="0.274766"/>
<path d="M171.97 53.7947V53.932H172.108H179.659H179.796V53.7947V53.5911V53.4537H179.659C178.902 53.4537 178.267 53.2811 177.735 52.8769C177.201 52.4713 176.756 51.8219 176.402 50.8425C175.691 48.8781 175.359 45.6334 175.359 40.5245V35.8518L190.626 53.8834L190.667 53.932H190.731H192.725H193.022L192.83 53.7058L191.275 51.8718V37.7361C191.275 36.3626 191.503 35.3733 191.945 34.7305C192.381 34.0977 193.037 33.7826 193.946 33.7826H194.084V33.6452V33.4417V33.3043H193.946H186.395H186.258V33.4417V33.6452V33.7826H186.395C187.152 33.7826 187.787 33.9552 188.319 34.3595C188.853 34.765 189.298 35.4144 189.653 36.3938C190.363 38.3582 190.695 41.6029 190.695 46.7118V51.242L175.55 33.3529L175.509 33.3043H175.446H173.451H173.155L173.346 33.5304L174.779 35.222V49.5002C174.779 50.8737 174.551 51.863 174.109 52.5058C173.673 53.1386 173.018 53.4537 172.108 53.4537H171.97V53.5911V53.7947Z" fill="#4E4F30" stroke="#4E4F30" stroke-width="0.274766"/>
<path d="M156.897 53.1077C154.809 53.1077 152.819 52.4501 151.354 51.0691C149.89 49.6898 148.934 47.576 148.934 44.6358C148.934 37.8641 154.275 34.1082 159.217 34.1082C161.335 34.1082 163.37 34.8007 164.875 36.2353C166.378 37.6684 167.364 39.8539 167.364 42.8651C167.364 49.3268 161.886 53.1077 156.897 53.1077ZM158.118 32.999C152.142 32.999 147.296 37.7803 147.296 43.6385C147.296 49.4974 152.143 54.2373 158.118 54.2373C164.094 54.2373 168.941 49.4974 168.941 43.6385C168.941 37.7803 164.095 32.999 158.118 32.999Z" fill="#4E4F30" stroke="#4E4F30" stroke-width="0.274766"/>
<path d="M126.081 35.4566V35.6738L126.277 35.5807C127.668 34.9208 128.69 34.5089 129.865 34.2552C131.015 34.0071 132.317 33.9092 134.263 33.8858V50.1718C134.263 51.1295 134.121 51.9554 133.783 52.5375C133.451 53.1085 132.926 53.4537 132.121 53.4537H131.551H131.413V53.5911V53.7947V53.932H131.551H138.776H138.914V53.7947V53.5911V53.4537H138.776H138.206C137.401 53.4537 136.876 53.1085 136.544 52.5375C136.206 51.9554 136.064 51.1295 136.064 50.1718V33.8858C138.02 33.9092 139.328 34.0071 140.48 34.2552C141.658 34.5089 142.679 34.9208 144.07 35.5807L144.266 35.6738V35.4566V33.4417V33.3043H144.129H126.218H126.081V33.4417V35.4566Z" fill="#4E4F30" stroke="#4E4F30" stroke-width="0.274766"/>
<path d="M105.312 50.1577L105.236 50.2369L105.296 50.3289C107.312 53.3834 111.286 54.2373 115.282 54.2373C119.933 54.2373 123.052 51.792 123.052 48.8489C123.052 47.8182 122.804 46.9768 122.366 46.2827C121.928 45.5896 121.306 45.0511 120.567 44.6175C119.095 43.7533 117.139 43.2935 115.21 42.8608C115.124 42.8413 115.037 42.8219 114.95 42.8025C113.1 42.3882 111.293 41.9839 109.927 41.2657C109.215 40.8912 108.63 40.4352 108.223 39.8553C107.818 39.2771 107.584 38.5676 107.584 37.6751C107.584 36.6492 108.13 35.6702 109.156 34.9428C110.184 34.2149 111.691 33.7419 113.593 33.7419C117.433 33.7419 119.884 35.5301 121.152 36.717L121.277 36.8345L121.364 36.6862L122.26 35.1598L122.323 35.051L122.221 34.9782C121.397 34.3946 120.173 33.9008 118.807 33.5528C117.438 33.2041 115.915 32.999 114.488 32.999C109.264 32.999 106.25 35.6912 106.25 38.6113C106.25 39.6199 106.5 40.4422 106.942 41.1195C107.383 41.7955 108.01 42.3192 108.753 42.7401C110.234 43.5788 112.202 44.0219 114.144 44.4419C114.217 44.4576 114.289 44.4733 114.362 44.489C116.24 44.8947 118.076 45.2913 119.462 46.0061C120.179 46.376 120.768 46.8272 121.177 47.4015C121.585 47.974 121.821 48.6767 121.821 49.5612C121.821 50.6507 121.16 51.6659 120.005 52.4176C118.851 53.1689 117.214 53.6472 115.302 53.6573C113.436 53.6674 111.801 53.3246 110.378 52.5667C108.955 51.809 107.736 50.6319 106.708 48.9601L106.616 48.8092L106.493 48.9366L105.312 50.1577Z" fill="#4E4F30" stroke="#4E4F30" stroke-width="0.274766"/>
<path d="M327.137 74.3407L327.174 74.3931H327.239H328.006H328.249L328.108 74.1954L325.893 71.0945C326.531 70.8798 327.033 70.5351 327.392 70.057C327.79 69.5292 327.986 68.8842 327.986 68.1296C327.986 67.1194 327.643 66.3189 326.948 65.7449C326.258 65.1648 325.313 64.8824 324.13 64.8824H320.809H320.684V65.0074V74.2681V74.3931H320.809H321.484H321.609V74.2681V71.3635H324.13C324.389 71.3635 324.669 71.3442 324.971 71.306L327.137 74.3407ZM326.311 66.3728L326.311 66.3728L326.312 66.3736C326.799 66.7775 327.048 67.3565 327.048 68.1296C327.048 68.9024 326.799 69.4863 326.312 69.8992C325.822 70.3055 325.101 70.5182 324.13 70.5182H321.609V65.741H324.13C325.101 65.741 325.822 65.958 326.311 66.3728Z" fill="#4E4F30" stroke="#4E4F30" stroke-width="0.25"/>
<path d="M301.576 72.095L301.576 72.095L301.577 72.096C302.011 72.8294 302.605 73.4093 303.355 73.8344L303.357 73.835C304.109 74.2518 304.95 74.4592 305.878 74.4592C306.806 74.4592 307.647 74.2518 308.399 73.835C309.15 73.4186 309.74 72.8427 310.166 72.1087C310.602 71.3738 310.818 70.5491 310.818 69.6377C310.818 68.7264 310.602 67.9017 310.166 67.1667C309.74 66.4328 309.15 65.8569 308.399 65.4405C307.647 65.0237 306.806 64.8163 305.878 64.8163C304.95 64.8163 304.108 65.0282 303.356 65.454C302.605 65.8704 302.011 66.446 301.577 67.1795L301.576 67.1795L301.576 67.1805C301.15 67.9152 300.937 68.7353 300.937 69.6377C300.937 70.5402 301.15 71.3603 301.576 72.095ZM309.355 67.6232L309.355 67.6239C309.705 68.2207 309.88 68.891 309.88 69.6377C309.88 70.3844 309.705 71.0593 309.355 71.6652C309.004 72.2632 308.527 72.7324 307.92 73.0743C307.314 73.4157 306.634 73.5874 305.878 73.5874C305.121 73.5874 304.437 73.4158 303.822 73.0741C303.215 72.7322 302.738 72.2631 302.387 71.6651C302.038 71.0592 301.862 70.3844 301.862 69.6377C301.862 68.891 302.038 68.2207 302.387 67.6239L302.387 67.6239L302.388 67.6232C302.738 67.0164 303.216 66.543 303.822 66.2013C304.437 65.8597 305.122 65.6881 305.878 65.6881C306.634 65.6881 307.314 65.8598 307.92 66.2012C308.526 66.5429 309.004 67.0163 309.355 67.6232Z" fill="#4E4F30" stroke="#4E4F30" stroke-width="0.25"/>
<path d="M285.13 73.8347L285.131 73.835C285.883 74.2518 286.724 74.4592 287.652 74.4592C288.328 74.4592 288.956 74.3466 289.536 74.12C290.126 73.8932 290.627 73.561 291.037 73.1232L291.119 73.0363L291.036 72.9507L290.613 72.5141L290.525 72.4235L290.435 72.5122C289.711 73.2278 288.795 73.5874 287.679 73.5874C286.922 73.5874 286.238 73.4157 285.623 73.074C285.007 72.7319 284.525 72.2628 284.175 71.6652C283.825 71.0592 283.65 70.3844 283.65 69.6377C283.65 68.891 283.825 68.2207 284.175 67.6239L284.175 67.6239L284.175 67.6232C284.525 67.0167 285.007 66.5434 285.623 66.2015C286.238 65.8598 286.922 65.6881 287.679 65.6881C288.805 65.6881 289.72 66.0437 290.435 66.75L290.525 66.8387L290.613 66.7481L291.036 66.3116L291.119 66.226L291.037 66.139C290.627 65.7013 290.13 65.3734 289.549 65.1553C288.969 64.9288 288.336 64.8163 287.652 64.8163C286.724 64.8163 285.883 65.0237 285.131 65.4405L285.13 65.4408C284.388 65.8573 283.799 66.433 283.364 67.1663L283.364 67.1663L283.364 67.1672C282.937 67.9022 282.725 68.7267 282.725 69.6377C282.725 70.5488 282.937 71.3733 283.364 72.1082L283.364 72.1082L283.364 72.1092C283.799 72.8425 284.388 73.4182 285.13 73.8347Z" fill="#4E4F30" stroke="#4E4F30" stroke-width="0.25"/>
<path d="M272.859 73.6595V73.5345H272.734H267.144V69.9877H271.953H272.078V69.8627V69.2673V69.1423H271.953H267.144V65.741H272.535H272.66V65.616V65.0074V64.8824H272.535H266.344H266.219V65.0074V74.2681V74.3931H266.344H272.734H272.859V74.2681V73.6595Z" fill="#4E4F30" stroke="#4E4F30" stroke-width="0.25"/>
<path d="M247.642 64.8824H247.517V65.0074V74.2681V74.3931H247.642H251.307C252.286 74.3931 253.157 74.1909 253.919 73.783C254.688 73.3759 255.287 72.8135 255.714 72.0962L255.714 72.0956C256.141 71.3692 256.353 70.5488 256.353 69.6378C256.353 68.7269 256.141 67.9108 255.714 67.1929C255.287 66.4668 254.688 65.8997 253.919 65.4924C253.157 65.0846 252.285 64.8824 251.307 64.8824H247.642ZM253.458 66.2425L253.458 66.2425L253.459 66.2431C254.091 66.5678 254.576 67.0233 254.916 67.6102C255.256 68.1976 255.428 68.8722 255.428 69.6378C255.428 70.4033 255.256 71.0779 254.916 71.6653C254.576 72.2523 254.091 72.7124 253.458 73.0459C252.826 73.3704 252.092 73.5345 251.254 73.5345H248.442V65.741H251.254C252.092 65.741 252.826 65.9094 253.458 66.2425Z" fill="#4E4F30" stroke="#4E4F30" stroke-width="0.25"/>
<path d="M226.539 74.4866L226.631 74.5839L226.722 74.4845L227.119 74.0479L227.197 73.9622L227.117 73.878L225.807 72.4922C226.144 71.9262 226.396 71.229 226.567 70.4039L226.589 70.2936L226.482 70.2595L225.939 70.0875L225.806 70.0452L225.779 70.1827C225.653 70.8277 225.464 71.391 225.213 71.8741L222.7 69.2159C223.417 68.7869 223.933 68.395 224.237 68.039C224.573 67.6475 224.743 67.2046 224.743 66.7141C224.743 66.1364 224.546 65.6716 224.144 65.3359C223.754 64.9936 223.228 64.8296 222.581 64.8296C221.889 64.8296 221.324 65.0075 220.898 65.3761C220.471 65.7461 220.26 66.2406 220.26 66.8464C220.26 67.2365 220.348 67.6045 220.525 67.9486L220.525 67.9486L220.526 67.9499C220.69 68.2615 220.983 68.6375 221.398 69.0767C220.586 69.5632 219.997 70.0277 219.64 70.4719C219.261 70.9336 219.069 71.4506 219.069 72.0191C219.069 72.4944 219.205 72.9215 219.477 73.2964C219.748 73.6701 220.124 73.9567 220.601 74.1583C221.077 74.3599 221.615 74.4593 222.211 74.4593C222.86 74.4593 223.455 74.3464 223.992 74.1186L223.992 74.1186L223.994 74.1179C224.491 73.8992 224.925 73.5871 225.296 73.1827L226.539 74.4866ZM223.569 65.9076L223.569 65.9076L223.571 65.9092C223.795 66.1023 223.911 66.3696 223.911 66.7273C223.911 67.0536 223.789 67.355 223.534 67.6346C223.285 67.9004 222.824 68.2332 222.141 68.633C221.74 68.2024 221.476 67.8697 221.341 67.6322C221.201 67.3761 221.132 67.1147 221.132 66.8464C221.132 66.4623 221.257 66.1671 221.501 65.947L221.501 65.9468C221.754 65.7175 222.109 65.5955 222.581 65.5955C223.019 65.5955 223.343 65.7049 223.569 65.9076ZM224.729 72.5804C224.118 73.2945 223.292 73.6536 222.237 73.6536C221.552 73.6536 221.002 73.4911 220.579 73.176C220.169 72.8638 219.968 72.4636 219.968 71.9662C219.968 71.5472 220.106 71.1696 220.388 70.8296C220.672 70.4969 221.189 70.1036 221.95 69.6506L224.729 72.5804Z" fill="#4E4F30" stroke="#4E4F30" stroke-width="0.25"/>
<path d="M198.703 65.0074V64.8824H198.578H197.904H197.779V65.0074V72.6885L191.705 64.9304L191.667 64.8824H191.606H191.038H190.913V65.0074V74.2681V74.3931H191.038H191.712H191.837V74.2681V66.5864L197.924 74.3452L197.962 74.3931H198.023H198.578H198.703V74.2681V65.0074Z" fill="#4E4F30" stroke="#4E4F30" stroke-width="0.25"/>
<path d="M179.734 69.5524H179.609V69.6774V72.8055C178.946 73.3244 178.113 73.5874 177.101 73.5874C176.327 73.5874 175.634 73.4156 175.019 73.0743C174.403 72.7233 173.917 72.2494 173.557 71.6513C173.208 71.0453 173.032 70.375 173.032 69.6377C173.032 68.891 173.208 68.2207 173.558 67.6239L173.558 67.6239L173.558 67.6232C173.908 67.0168 174.39 66.5435 175.005 66.2017C175.629 65.8599 176.327 65.6881 177.101 65.6881C177.671 65.6881 178.185 65.7743 178.645 65.9449L178.645 65.9449L178.648 65.9458C179.114 66.1068 179.534 66.3739 179.91 66.7495L180.001 66.8406L180.089 66.7468L180.513 66.297L180.595 66.2096L180.511 66.1239C180.092 65.6957 179.587 65.3729 178.998 65.1552C178.417 64.9287 177.78 64.8163 177.088 64.8163C176.143 64.8163 175.288 65.0235 174.527 65.4402L174.527 65.4405C173.776 65.8569 173.182 66.4326 172.747 67.1663L172.747 67.1663L172.746 67.1672C172.32 67.9022 172.108 68.7267 172.108 69.6377C172.108 70.5488 172.32 71.3733 172.746 72.1082L172.746 72.1082L172.747 72.1092C173.182 72.8429 173.776 73.4186 174.527 73.835L174.527 73.8353C175.288 74.2519 176.138 74.4592 177.075 74.4592C177.732 74.4592 178.354 74.3556 178.942 74.1478C179.539 73.9397 180.049 73.6354 180.468 73.2339L180.507 73.197V73.1435V69.6774V69.5524H180.382H179.734Z" fill="#4E4F30" stroke="#4E4F30" stroke-width="0.25"/>
<path d="M160.942 64.8824H160.817V65.0074V74.2681V74.3931H160.942H161.617H161.742V74.2681V65.0074V64.8824H161.617H160.942Z" fill="#4E4F30" stroke="#4E4F30" stroke-width="0.25"/>
<path d="M145.002 74.1066L145.002 74.1067L145.004 74.1074C145.636 74.3421 146.299 74.4592 146.992 74.4592C147.736 74.4592 148.372 74.3473 148.894 74.1179C149.414 73.8902 149.806 73.5808 150.06 73.1856C150.321 72.7946 150.451 72.3606 150.451 71.8867C150.451 71.3181 150.299 70.8533 149.983 70.5071C149.687 70.166 149.327 69.9121 148.903 69.7462C148.49 69.5847 147.942 69.42 147.26 69.2518L147.26 69.2518C146.654 69.1024 146.178 68.9626 145.832 68.8328C145.495 68.7064 145.216 68.5265 144.992 68.2942C144.781 68.0752 144.67 67.7781 144.67 67.3887C144.67 66.8814 144.872 66.472 145.283 66.1511C145.693 65.8313 146.309 65.6616 147.151 65.6616C147.57 65.6616 147.995 65.7258 148.425 65.8548L148.425 65.855C148.863 65.9837 149.261 66.1721 149.62 66.42L149.742 66.5043L149.804 66.3697L150.056 65.8273L150.1 65.7328L150.015 65.6727C149.64 65.408 149.2 65.1998 148.695 65.0466C148.19 64.8931 147.675 64.8163 147.151 64.8163C146.407 64.8163 145.776 64.9282 145.261 65.1579L145.261 65.1579L145.26 65.1582C144.757 65.3868 144.375 65.7012 144.122 66.1046C143.871 66.4955 143.745 66.929 143.745 67.402C143.745 67.979 143.892 68.4555 144.198 68.8187L144.198 68.8187L144.2 68.8213C144.504 69.1623 144.869 69.4162 145.293 69.5822L145.294 69.5825C145.715 69.7438 146.267 69.9084 146.949 70.0766L146.95 70.0769C147.548 70.2175 148.018 70.3528 148.364 70.4824C148.701 70.6088 148.98 70.7887 149.204 71.021C149.415 71.24 149.526 71.5371 149.526 71.9264C149.526 72.423 149.322 72.8232 148.902 73.1359C148.483 73.4481 147.848 73.6139 146.979 73.6139C146.386 73.6139 145.819 73.5108 145.278 73.305C144.745 73.0897 144.325 72.8166 144.014 72.4886L143.901 72.3698L143.816 72.51L143.512 73.0127L143.463 73.0933L143.527 73.1625C143.887 73.5501 144.381 73.8636 145.002 74.1066Z" fill="#4E4F30" stroke="#4E4F30" stroke-width="0.25"/>
<path d="M133.128 73.6595V73.5345H133.003H127.412V69.9877H132.222H132.347V69.8627V69.2673V69.1423H132.222H127.412V65.741H132.804H132.929V65.616V65.0074V64.8824H132.804H126.613H126.488V65.0074V74.2681V74.3931H126.613H133.003H133.128V74.2681V73.6595Z" fill="#4E4F30" stroke="#4E4F30" stroke-width="0.25"/>
<path d="M107.411 64.8824H107.286V65.0074V74.2681V74.3931H107.411H111.075C112.054 74.3931 112.926 74.1909 113.688 73.783C114.456 73.3759 115.056 72.8135 115.482 72.0962L115.483 72.0956C115.91 71.3692 116.122 70.5488 116.122 69.6378C116.122 68.7269 115.91 67.9108 115.483 67.1929C115.056 66.4668 114.457 65.8997 113.687 65.4924C112.926 65.0846 112.054 64.8824 111.075 64.8824H107.411ZM113.226 66.2425L113.226 66.2425L113.228 66.2431C113.86 66.5678 114.345 67.0233 114.685 67.6102C115.025 68.1976 115.197 68.8722 115.197 69.6378C115.197 70.4033 115.025 71.0779 114.685 71.6653C114.344 72.2523 113.86 72.7124 113.227 73.0459C112.595 73.3704 111.861 73.5345 111.023 73.5345H108.211V65.741H111.023C111.861 65.741 112.594 65.9094 113.226 66.2425Z" fill="#4E4F30" stroke="#4E4F30" stroke-width="0.25"/>
<path fill-rule="evenodd" clip-rule="evenodd" d="M351.016 18.6089H64.7385V88.1154H351.016V18.6089ZM63.7548 17.5558V89.1686H352V17.5558H63.7548Z" fill="#4E4F30"/>
<path d="M55.7983 0.0390625H80.2488L87.8369 53.3666V106.694H55.7983V0.0390625Z" fill="white"/>
<path d="M21.9415 88.3743H23.9633C30.0288 88.3743 32.0506 83.1754 32.0506 76.3157V29.8141C32.0506 22.9544 30.0288 17.7555 23.9633 17.7555H21.9415V16.9612H60.2115C70.5371 16.9612 82.8124 22.1601 82.8124 34.7242C82.8124 45.0499 74.8696 51.1153 62.9553 53.0649C80.0685 53.4259 87.4336 61.6576 87.4336 70.9001C87.4336 84.8362 75.5194 89.1686 65.6992 89.1686H21.9415V88.3743ZM37.4661 53.787V76.3157C37.4661 83.1754 38.477 88.3021 48.8027 88.3021H63.3164C72.9922 88.3021 82.0181 82.6699 82.0181 71.0445C82.0181 58.5527 71.6202 53.787 58.3341 53.787H37.4661ZM37.4661 53.0649H53.7128C67.36 53.0649 76.6747 47.3605 76.6747 34.7964C76.6747 25.0484 69.093 17.8999 52.5575 17.8999C51.5466 17.8999 49.8858 17.8277 48.8027 17.8277C38.4048 17.8277 37.4661 22.9544 37.4661 29.8141V53.0649Z" fill="#4E4F30"/>
<path d="M57.3113 51.6897L18.2252 42.442V56.0163L57.3113 65.264V51.6897Z" fill="white"/>
<path d="M58.7442 15.8055L16.7924 8.05737V20.2176C16.7924 20.2176 25.5157 19.9025 33.9447 21.4109C42.3736 22.9192 58.7442 27.9658 58.7442 27.9658V15.8055Z" fill="white"/>
<path d="M59.6642 99.6472V83.2286C59.6642 83.2286 41.8008 85.8725 33.9605 84.8696C26.1202 83.8668 16.7924 79.7404 16.7924 79.7404V93.063L59.6642 99.6472Z" fill="white"/>
<path d="M0.706421 76.0465L4.89445 71.7141C12.2596 83.7005 22.4409 88.6828 35.7992 88.6106C49.5186 88.5384 59.411 81.7509 59.411 73.5914C59.411 47.7412 4.17238 62.6881 4.17238 34.7439C4.17238 24.7792 14.498 15.3201 32.9109 15.3201C42.9478 15.3201 54.3565 18.2084 60.0609 22.252L56.8838 27.6675C52.3347 23.4073 43.5254 16.9808 29.7338 16.9808C16.0866 16.9808 7.92716 23.7683 7.92716 31.4223C7.92716 57.4892 62.8048 42.4701 62.8048 71.0642C62.8048 81.101 52.1181 89.6937 35.727 89.6937C21.5744 89.6937 7.71054 86.661 0.706421 76.0465Z" fill="#4E4F30"/>
</svg>
