<svg width="308" height="95" viewBox="0 0 308 95" fill="none" xmlns="http://www.w3.org/2000/svg">
<path d="M271.048 29.683V29.8041H271.169H271.672C272.383 29.8041 272.845 30.1046 273.137 30.6032C273.435 31.1117 273.56 31.8351 273.56 32.6794V44.2343C273.56 45.0786 273.435 45.802 273.137 46.3105C272.845 46.8091 272.383 47.1096 271.672 47.1096H271.169H271.048V47.2307V47.4281V47.5492H271.169H277.539H277.66V47.4281V47.2307V47.1096H277.539H277.037C276.326 47.1096 275.863 46.8091 275.571 46.3105C275.273 45.802 275.148 45.0786 275.148 44.2343V41.1749C275.951 40.2331 277.052 38.9605 278.306 37.566L286.471 47.505L286.507 47.5492H286.564H288.305H288.561L288.398 47.3512L279.386 36.3799C279.453 36.3071 279.52 36.2342 279.586 36.1613C280.997 34.6223 282.415 33.0753 283.819 31.8881C285.315 30.6221 286.771 29.7861 288.161 29.7861H288.282V29.665V29.4856V29.3645H288.161H280.876H280.755V29.4856V29.6471V29.7682H280.876C281.417 29.7682 281.897 29.8442 282.239 30.0453C282.57 30.2401 282.783 30.5581 282.783 31.0825C282.783 31.243 282.719 31.4556 282.588 31.7203C282.458 31.9827 282.266 32.2852 282.024 32.6224C281.539 33.2967 280.857 34.0985 280.073 34.9784C279.574 35.5377 279.034 36.1285 278.477 36.737C277.364 37.9536 276.187 39.2409 275.148 40.4886V32.6794C275.148 31.8351 275.273 31.1117 275.571 30.6032C275.863 30.1046 276.326 29.8041 277.037 29.8041H277.539H277.66V29.683V29.4856V29.3645H277.539H271.169H271.048V29.4856V29.683Z" fill="#4E4F30" stroke="#4E4F30" stroke-width="0.242224"/>
<path d="M257.76 46.8225C255.919 46.8225 254.166 46.2428 252.873 45.0253C251.583 43.8094 250.74 41.9459 250.74 39.3539C250.74 33.3842 255.448 30.0732 259.806 30.0732C261.673 30.0732 263.467 30.6836 264.793 31.9484C266.118 33.2117 266.987 35.1384 266.987 37.7929C266.987 43.4893 262.158 46.8225 257.76 46.8225ZM258.837 29.0953C253.569 29.0953 249.296 33.3104 249.296 38.4748C249.296 43.6397 253.569 47.8183 258.837 47.8183C264.105 47.8183 268.378 43.6397 268.378 38.4748C268.378 33.3104 264.105 29.0953 258.837 29.0953Z" fill="#4E4F30" stroke="#4E4F30" stroke-width="0.242224"/>
<path d="M236.008 46.8225C234.167 46.8225 232.413 46.2428 231.121 45.0253C229.83 43.8094 228.988 41.9459 228.988 39.3539C228.988 33.3842 233.696 30.0732 238.053 30.0732C239.921 30.0732 241.714 30.6836 243.041 31.9484C244.366 33.2117 245.235 35.1384 245.235 37.7929C245.235 43.4893 240.406 46.8225 236.008 46.8225ZM237.084 29.0953C231.816 29.0953 227.544 33.3104 227.544 38.4748C227.544 43.6397 231.817 47.8183 237.084 47.8183C242.352 47.8183 246.625 43.6397 246.625 38.4748C246.625 33.3104 242.353 29.0953 237.084 29.0953Z" fill="#4E4F30" stroke="#4E4F30" stroke-width="0.242224"/>
<path d="M208.626 47.4281V47.5492H208.747H215.117H215.238V47.4281V47.2307V47.1096H215.117H214.615C213.904 47.1096 213.441 46.8091 213.149 46.3105C212.851 45.802 212.726 45.0786 212.726 44.2343V38.5779H214.917L222.507 47.5065L222.543 47.5492H222.599H224.357H224.619L224.45 47.3496L216.994 38.5779H218.867C220.007 38.5779 221.502 38.3885 222.717 37.7057C223.94 37.0179 224.873 35.8311 224.873 33.8636C224.873 32.2681 224.146 31.1367 223.038 30.4093C221.935 29.6857 220.461 29.3645 218.957 29.3645H208.747H208.626V29.4856V29.683V29.8041H208.747H209.25C209.961 29.8041 210.423 30.1046 210.715 30.6032C211.013 31.1117 211.138 31.8351 211.138 32.6794V44.2343C211.138 45.0786 211.013 45.802 210.715 46.3105C210.423 46.8091 209.961 47.1096 209.25 47.1096H208.747H208.626V47.2307V47.4281ZM218.347 38.0666H212.726V29.8758H218.347C219.75 29.8758 220.986 30.1737 221.868 30.817C222.745 31.4561 223.285 32.4454 223.285 33.8636C223.285 35.3283 222.743 36.3724 221.865 37.0536C220.983 37.7383 219.747 38.0666 218.347 38.0666Z" fill="#4E4F30" stroke="#4E4F30" stroke-width="0.242224"/>
<path d="M189.561 47.1096H189.44V47.2307V47.4281V47.5492H189.561H200.434C201.669 47.5492 203.045 47.2773 204.117 46.5575C205.195 45.8333 205.956 44.661 205.956 42.8886C205.956 41.7059 205.483 40.5852 204.465 39.7514C203.601 39.044 202.351 38.5488 200.678 38.3885C201.776 38.1088 202.709 37.6647 203.409 37.0497C204.299 36.2687 204.808 35.2173 204.808 33.8994C204.808 32.2919 204.019 31.1528 202.907 30.4206C201.8 29.6914 200.371 29.3645 199.07 29.3645H189.561H189.44V29.4856V29.683V29.8041H189.561H190.063C190.774 29.8041 191.237 30.1046 191.529 30.6032C191.827 31.1117 191.952 31.8351 191.952 32.6794V44.2343C191.952 45.0786 191.827 45.802 191.529 46.3105C191.237 46.8091 190.774 47.1096 190.063 47.1096H189.561ZM193.54 44.2343V38.7574H198.604C200.243 38.7574 201.688 39.052 202.719 39.7181C203.742 40.3792 204.368 41.4125 204.368 42.9245C204.368 44.3342 203.822 45.3715 202.99 46.0585C202.155 46.748 201.022 47.0917 199.842 47.0917H196.236C194.97 47.0917 194.313 46.7775 193.963 46.2919C193.605 45.7958 193.54 45.0893 193.54 44.2343ZM197.456 38.3357H193.54V32.6794C193.54 31.8237 193.601 31.1175 193.957 30.6215C194.305 30.1364 194.96 29.822 196.236 29.822C196.368 29.822 196.537 29.8264 196.706 29.8309L196.715 29.8312C196.88 29.8356 197.043 29.84 197.169 29.84C199.208 29.84 200.676 30.281 201.633 31.0063C202.584 31.7283 203.04 32.7409 203.04 33.9174C203.04 35.4447 202.476 36.5415 201.508 37.2606C200.534 37.9839 199.137 38.3357 197.456 38.3357Z" fill="#4E4F30" stroke="#4E4F30" stroke-width="0.242224"/>
<path d="M171.271 29.3645H171.15V29.4856V29.665V29.7819L171.267 29.7861L171.77 29.804L171.77 29.804C172.484 29.8295 172.948 30.1316 173.24 30.6239C173.537 31.1255 173.662 31.8352 173.662 32.6794V44.2343C173.662 45.0786 173.537 45.8067 173.239 46.3199C172.947 46.8232 172.484 47.1275 171.774 47.1275H171.271H171.15V47.2487V47.4281V47.5492H171.271H186.648H186.769V47.4281V45.6518V45.4666L186.6 45.5408C183.467 46.9113 179.883 47.0378 177.139 47.0378C176.425 47.0378 175.963 46.7527 175.672 46.2731C175.375 45.7832 175.25 45.0788 175.25 44.2343V38.5779H186.11H186.231V38.4568V37.2009V37.0798H186.11H175.25V32.6794C175.25 31.8349 175.375 31.1304 175.672 30.6406C175.963 30.161 176.425 29.8758 177.139 29.8758C179.883 29.8758 183.467 30.0024 186.6 31.3729L186.769 31.4471V31.2619V29.4856V29.3645H186.648H171.271Z" fill="#4E4F30" stroke="#4E4F30" stroke-width="0.242224"/>
<path d="M148.986 47.4281V47.5492H149.107H155.763H155.884V47.4281V47.2487V47.1275H155.763C155.096 47.1275 154.537 46.9753 154.067 46.619C153.597 46.2614 153.205 45.689 152.892 44.8256C152.265 43.0938 151.973 40.2334 151.973 35.7296V31.6103L165.432 47.5063L165.468 47.5492H165.524H167.282H167.544L167.375 47.3498L166.004 45.7329V33.2715C166.004 32.0606 166.205 31.1885 166.595 30.6218C166.979 30.0639 167.557 29.7861 168.359 29.7861H168.48V29.665V29.4856V29.3645H168.359H161.702H161.581V29.4856V29.665V29.7861H161.702C162.369 29.7861 162.929 29.9383 163.398 30.2947C163.869 30.6522 164.261 31.2247 164.574 32.0881C165.2 33.8199 165.493 36.6802 165.493 41.1841V45.1777L152.142 29.4073L152.105 29.3645H152.049H150.291H150.03L150.198 29.5639L151.462 31.0551V43.6422C151.462 44.8531 151.261 45.7252 150.871 46.2919C150.487 46.8497 149.909 47.1275 149.107 47.1275H148.986V47.2487V47.4281Z" fill="#4E4F30" stroke="#4E4F30" stroke-width="0.242224"/>
<path d="M135.698 46.8225C133.856 46.8225 132.103 46.2428 130.811 45.0253C129.52 43.8094 128.678 41.9459 128.678 39.3539C128.678 33.3842 133.386 30.0732 137.743 30.0732C139.61 30.0732 141.404 30.6836 142.73 31.9484C144.055 33.2117 144.925 35.1384 144.925 37.7929C144.925 43.4893 140.096 46.8225 135.698 46.8225ZM136.774 29.0953C131.506 29.0953 127.233 33.3104 127.233 38.4748C127.233 43.6397 131.506 47.8183 136.774 47.8183C142.042 47.8183 146.315 43.6397 146.315 38.4748C146.315 33.3104 142.043 29.0953 136.774 29.0953Z" fill="#4E4F30" stroke="#4E4F30" stroke-width="0.242224"/>
<path d="M108.531 31.2619V31.4534L108.704 31.3713C109.93 30.7896 110.831 30.4264 111.867 30.2028C112.881 29.9841 114.029 29.8978 115.744 29.8772V44.2343C115.744 45.0786 115.619 45.8067 115.321 46.3199C115.028 46.8232 114.566 47.1275 113.856 47.1275H113.353H113.232V47.2487V47.4281V47.5492H113.353H119.723H119.844V47.4281V47.2487V47.1275H119.723H119.22C118.51 47.1275 118.048 46.8232 117.755 46.3199C117.457 45.8067 117.332 45.0786 117.332 44.2343V29.8772C119.056 29.8977 120.209 29.9841 121.225 30.2028C122.263 30.4264 123.164 30.7896 124.39 31.3713L124.563 31.4534V31.2619V29.4856V29.3645H124.442H108.652H108.531V29.4856V31.2619Z" fill="#4E4F30" stroke="#4E4F30" stroke-width="0.242224"/>
<path d="M90.222 44.2219L90.1545 44.2917L90.208 44.3728C91.9849 47.0656 95.4885 47.8183 99.0112 47.8183C103.112 47.8183 105.861 45.6625 105.861 43.068C105.861 42.1594 105.642 41.4177 105.256 40.8058C104.87 40.1948 104.321 39.7201 103.67 39.3378C102.373 38.576 100.648 38.1706 98.948 37.7891C98.8715 37.772 98.7951 37.7549 98.7187 37.7378C97.0872 37.3726 95.4949 37.0161 94.2904 36.3829C93.6623 36.0528 93.1469 35.6508 92.7884 35.1396C92.431 34.6299 92.2244 34.0045 92.2244 33.2176C92.2244 32.3132 92.7058 31.4502 93.611 30.809C94.5169 30.1672 95.8455 29.7502 97.522 29.7502C100.907 29.7502 103.068 31.3267 104.186 32.373L104.296 32.4766L104.373 32.3459L105.162 31.0002L105.218 30.9044L105.128 30.8401C104.402 30.3257 103.323 29.8904 102.118 29.5835C100.912 29.2762 99.5692 29.0953 98.3114 29.0953C93.7056 29.0953 91.0492 31.4687 91.0492 34.043C91.0492 34.9321 91.2693 35.657 91.6587 36.254C92.0473 36.8501 92.6001 37.3117 93.2553 37.6827C94.5612 38.4222 96.2963 38.8127 98.0077 39.183C98.0719 39.1969 98.136 39.2107 98.2001 39.2246C99.8555 39.5821 101.474 39.9318 102.696 40.562C103.328 40.888 103.847 41.2858 104.208 41.7921C104.567 42.2968 104.775 42.9163 104.775 43.696C104.775 44.6564 104.193 45.5514 103.175 46.2141C102.157 46.8764 100.714 47.2981 99.0285 47.3069C97.3842 47.3158 95.9426 47.0137 94.6879 46.3455C93.4336 45.6776 92.3585 44.6399 91.4529 43.1661L91.3712 43.0331L91.2627 43.1453L90.222 44.2219Z" fill="#4E4F30" stroke="#4E4F30" stroke-width="0.242224"/>
<path d="M285.775 65.5407L285.808 65.5869H285.865H286.541H286.755L286.631 65.4126L284.678 62.679C285.241 62.4897 285.683 62.1858 286 61.7642C286.35 61.299 286.523 60.7304 286.523 60.0652C286.523 59.1747 286.221 58.469 285.609 57.963C285 57.4516 284.167 57.2027 283.124 57.2027H280.197H280.087V57.3129V65.4767V65.5869H280.197H280.792H280.902V65.4767V62.9162H283.124C283.352 62.9162 283.6 62.8992 283.866 62.8655L285.775 65.5407ZM285.047 58.5165L285.047 58.5165L285.048 58.5172C285.477 58.8733 285.696 59.3837 285.696 60.0652C285.696 60.7465 285.477 61.2612 285.048 61.6252C284.616 61.9835 283.98 62.1709 283.124 62.1709H280.902V57.9595H283.124C283.98 57.9595 284.616 58.1508 285.047 58.5165Z" fill="#4E4F30" stroke="#4E4F30" stroke-width="0.220391"/>
<path d="M270.814 63.5731C271.198 62.9252 271.389 62.1981 271.389 61.3947C271.389 60.5914 271.198 59.8643 270.814 59.2164C270.439 58.5694 269.919 58.0617 269.256 57.6946C268.593 57.3271 267.852 57.1443 267.034 57.1443C266.216 57.1443 265.474 57.3311 264.811 57.7065C264.148 58.0736 263.625 58.581 263.242 59.2276L263.242 59.2276L263.241 59.2285C262.865 59.8762 262.678 60.5992 262.678 61.3947C262.678 62.1903 262.865 62.9133 263.241 63.561L263.241 63.561L263.242 63.5619C263.625 64.2084 264.148 64.7196 264.81 65.0944L264.811 65.0949C265.474 65.4624 266.216 65.6452 267.034 65.6452C267.852 65.6452 268.593 65.4624 269.256 65.0949C269.919 64.7278 270.439 64.2201 270.814 63.5731ZM270.814 63.5731C270.814 63.5732 270.814 63.5734 270.814 63.5735L270.719 63.5174L270.814 63.5726C270.814 63.5728 270.814 63.5729 270.814 63.5731ZM270.099 59.6188L270.099 59.6194C270.407 60.1455 270.562 60.7364 270.562 61.3947C270.562 62.0529 270.407 62.6479 270.099 63.182C269.79 63.7092 269.369 64.1229 268.834 64.4243C268.3 64.7253 267.7 64.8766 267.034 64.8766C266.367 64.8766 265.764 64.7253 265.221 64.4241C264.687 64.1227 264.265 63.7092 263.957 63.1821C263.648 62.6479 263.493 62.0529 263.493 61.3947C263.493 60.7364 263.648 60.1455 263.956 59.6194L263.957 59.6188C264.266 59.0839 264.687 58.6666 265.221 58.3653C265.764 58.0642 266.367 57.9129 267.034 57.9129C267.7 57.9129 268.3 58.0642 268.834 58.3652C269.369 58.6664 269.79 59.0838 270.099 59.6188Z" fill="#4E4F30" stroke="#4E4F30" stroke-width="0.220391"/>
<path d="M248.743 65.0946L248.744 65.0949C249.407 65.4624 250.149 65.6452 250.967 65.6452C251.562 65.6452 252.116 65.5459 252.628 65.3461C253.147 65.1462 253.589 64.8534 253.951 64.4674L254.023 64.3908L253.95 64.3153L253.576 63.9305L253.499 63.8506L253.42 63.9288C252.782 64.5596 251.974 64.8766 250.99 64.8766C250.323 64.8766 249.72 64.7253 249.177 64.424C248.635 64.1225 248.21 63.7089 247.901 63.1821C247.593 62.6479 247.438 62.0529 247.438 61.3947C247.438 60.7364 247.593 60.1455 247.901 59.6194L247.901 59.6188C248.21 59.0842 248.635 58.6669 249.177 58.3655C249.72 58.0642 250.323 57.9129 250.99 57.9129C251.983 57.9129 252.79 58.2264 253.42 58.849L253.499 58.9272L253.576 58.8474L253.95 58.4625L254.023 58.3871L253.951 58.3104C253.589 57.9246 253.151 57.6355 252.639 57.4432C252.127 57.2435 251.569 57.1443 250.967 57.1443C250.149 57.1443 249.407 57.3271 248.744 57.6946L248.743 57.6949C248.089 58.062 247.569 58.5695 247.186 59.216L247.186 59.216L247.186 59.2168C246.81 59.8647 246.623 60.5916 246.623 61.3947C246.623 62.1979 246.81 62.9248 247.186 63.5726L247.186 63.5726L247.186 63.5735C247.569 64.2199 248.089 64.7274 248.743 65.0946Z" fill="#4E4F30" stroke="#4E4F30" stroke-width="0.220391"/>
<path d="M237.925 64.9402V64.83H237.815H232.887V61.7032H237.127H237.237V61.593V61.0682V60.958H237.127H232.887V57.9595H237.64H237.75V57.8493V57.3129V57.2027H237.64H232.182H232.072V57.3129V65.4767V65.5869H232.182H237.815H237.925V65.4767V64.9402Z" fill="#4E4F30" stroke="#4E4F30" stroke-width="0.220391"/>
<path d="M215.695 57.2027H215.585V57.3129V65.4767V65.5869H215.695H218.926C219.789 65.5869 220.557 65.4087 221.228 65.0492C221.906 64.6903 222.434 64.1944 222.811 63.5621L222.811 63.5615C223.187 62.9211 223.374 62.1979 223.374 61.3948C223.374 60.5918 223.187 59.8723 222.811 59.2394C222.435 58.5993 221.906 58.0994 221.228 57.7404C220.557 57.3809 219.789 57.2027 218.926 57.2027H215.695ZM220.822 58.4017L220.822 58.4017L220.823 58.4022C221.38 58.6885 221.808 59.09 222.107 59.6074C222.408 60.1252 222.559 60.7199 222.559 61.3948C222.559 62.0697 222.408 62.6644 222.107 63.1822C221.807 63.6997 221.38 64.1052 220.822 64.3993C220.265 64.6853 219.618 64.83 218.879 64.83H216.4V57.9595H218.879C219.618 57.9595 220.265 58.108 220.822 58.4017Z" fill="#4E4F30" stroke="#4E4F30" stroke-width="0.220391"/>
<path d="M197.091 65.6694L197.173 65.7551L197.253 65.6675L197.602 65.2826L197.671 65.207L197.601 65.1328L196.446 63.9111C196.743 63.4121 196.966 62.7975 197.116 62.0702L197.136 61.9729L197.041 61.9429L196.563 61.7913L196.445 61.7539L196.421 61.8752C196.31 62.4438 196.144 62.9403 195.922 63.3663L193.707 61.0229C194.34 60.6446 194.794 60.299 195.062 59.9852C195.358 59.6401 195.508 59.2497 195.508 58.8174C195.508 58.308 195.335 57.8983 194.98 57.6023C194.636 57.3007 194.172 57.156 193.602 57.156C192.992 57.156 192.494 57.3128 192.119 57.6378C191.742 57.964 191.556 58.3999 191.556 58.934C191.556 59.2779 191.634 59.6023 191.79 59.9057L191.79 59.9057L191.79 59.9068C191.935 60.1815 192.194 60.513 192.559 60.9001C191.844 61.329 191.324 61.7385 191.009 62.1301C190.676 62.5371 190.506 62.9929 190.506 63.4941C190.506 63.913 190.626 64.2896 190.866 64.6201C191.104 64.9495 191.436 65.2022 191.857 65.3799C192.277 65.5576 192.75 65.6452 193.276 65.6452C193.848 65.6452 194.373 65.5457 194.846 65.3449L194.846 65.3449L194.848 65.3443C195.286 65.1514 195.668 64.8763 195.996 64.5198L197.091 65.6694ZM194.473 58.1064L194.473 58.1064L194.475 58.1078C194.672 58.278 194.775 58.5137 194.775 58.829C194.775 59.1167 194.667 59.3823 194.443 59.6289C194.222 59.8632 193.816 60.1565 193.214 60.509C192.861 60.1294 192.628 59.8361 192.509 59.6267C192.385 59.401 192.325 59.1705 192.325 58.934C192.325 58.5954 192.435 58.3351 192.65 58.1411L192.65 58.1409C192.873 57.9388 193.186 57.8313 193.602 57.8313C193.989 57.8313 194.274 57.9277 194.473 58.1064ZM195.496 63.9889C194.957 64.6184 194.229 64.935 193.299 64.935C192.695 64.935 192.21 64.7917 191.837 64.514C191.475 64.2387 191.298 63.8859 191.298 63.4474C191.298 63.078 191.42 62.7452 191.669 62.4454C191.919 62.1522 192.375 61.8055 193.046 61.4061L195.496 63.9889Z" fill="#4E4F30" stroke="#4E4F30" stroke-width="0.220391"/>
<path d="M172.552 57.3129V57.2027H172.442H171.847H171.737V57.3129V64.0842L166.383 57.2449L166.35 57.2027H166.296H165.795H165.684V57.3129V65.4767V65.5869H165.795H166.389H166.5V65.4767V58.7048L171.866 65.5447L171.899 65.5869H171.952H172.442H172.552V65.4767V57.3129Z" fill="#4E4F30" stroke="#4E4F30" stroke-width="0.220391"/>
<path d="M155.131 65.3707C155.658 65.1872 156.107 64.919 156.477 64.565L156.511 64.5324V64.4853V61.4297V61.3195H156.401H155.83H155.719V61.4297V64.1873M155.131 65.3707C155.131 65.3708 155.131 65.3708 155.131 65.3708L155.095 65.2668L155.132 65.3706C155.131 65.3707 155.131 65.3707 155.131 65.3707ZM155.131 65.3707C154.613 65.5539 154.065 65.6452 153.485 65.6452C152.66 65.6452 151.911 65.4624 151.24 65.0951L151.239 65.0949C150.577 64.7278 150.053 64.2203 149.67 63.5735L149.67 63.5726L149.67 63.5726C149.294 62.9248 149.107 62.1979 149.107 61.3947C149.107 60.5916 149.294 59.8647 149.67 59.2168L149.67 59.216L149.67 59.216C150.053 58.5692 150.577 58.0617 151.239 57.6946L151.24 57.6943C151.911 57.327 152.664 57.1443 153.497 57.1443C154.107 57.1443 154.669 57.2434 155.181 57.4431M155.181 57.4431C155.18 57.4429 155.18 57.4428 155.18 57.4427L155.141 57.5461C154.644 57.3517 154.096 57.2545 153.497 57.2545C152.681 57.2545 151.946 57.4333 151.293 57.791C150.647 58.1487 150.138 58.6424 149.765 59.2721C149.4 59.9019 149.217 60.6095 149.217 61.3947C149.217 62.18 149.4 62.8876 149.765 63.5173C150.138 64.1471 150.647 64.6408 151.293 64.9985C151.946 65.3561 152.677 65.535 153.485 65.535C154.053 65.535 154.589 65.4456 155.095 65.2667C155.608 65.0879 156.043 64.8274 156.401 64.4853V61.5399V61.4297H156.291H155.94H155.83V61.5399V64.2404M155.181 57.4431C155.7 57.635 156.145 57.9196 156.515 58.2971L156.589 58.3726L156.516 58.4497L156.143 58.8462L156.065 58.9289L155.985 58.8486C155.654 58.5174 155.283 58.282 154.872 58.1401L154.87 58.1393L154.87 58.1392C154.464 57.9889 154.011 57.9129 153.509 57.9129C152.826 57.9129 152.211 58.0644 151.661 58.3656C151.119 58.667 150.694 59.0842 150.385 59.6188L150.385 59.6194C150.077 60.1455 149.922 60.7364 149.922 61.3947C149.922 62.0447 150.076 62.6356 150.385 63.1699C150.701 63.6971 151.13 64.1149 151.673 64.4243M155.181 57.4431L151.673 64.4243M155.83 64.2404L155.76 64.1548C155.747 64.1658 155.733 64.1766 155.719 64.1873M155.83 64.2404C155.215 64.738 154.442 64.9868 153.509 64.9868C152.809 64.9868 152.179 64.8313 151.619 64.5203L155.83 64.2404ZM155.719 64.1873C155.135 64.6447 154.4 64.8766 153.509 64.8766C152.826 64.8766 152.215 64.7252 151.673 64.4243M155.719 64.1873L151.673 64.4243" fill="#4E4F30" stroke="#4E4F30" stroke-width="0.220391"/>
<path d="M139.263 57.2027H139.153V57.3129V65.4767V65.5869H139.263H139.858H139.968V65.4767V57.3129V57.2027H139.858H139.263Z" fill="#4E4F30" stroke="#4E4F30" stroke-width="0.220391"/>
<path d="M125.211 65.3344L125.211 65.3344L125.213 65.335C125.77 65.5419 126.354 65.6452 126.966 65.6452C127.621 65.6452 128.182 65.5465 128.643 65.3443C129.1 65.1435 129.446 64.8708 129.67 64.5224C129.9 64.1777 130.015 63.7951 130.015 63.3774C130.015 62.8761 129.881 62.4663 129.602 62.1612C129.342 61.8604 129.024 61.6366 128.65 61.4904C128.286 61.348 127.803 61.2028 127.202 61.0545L127.202 61.0545C126.667 60.9228 126.248 60.7996 125.943 60.6851C125.646 60.5737 125.4 60.4151 125.202 60.2103C125.016 60.0173 124.918 59.7553 124.918 59.4121C124.918 58.9649 125.096 58.604 125.459 58.3211C125.82 58.0391 126.364 57.8895 127.106 57.8895C127.475 57.8895 127.849 57.9461 128.229 58.0598L128.229 58.06C128.615 58.1735 128.966 58.3396 129.282 58.5581L129.39 58.6324L129.445 58.5138L129.666 58.0356L129.705 57.9523L129.63 57.8993C129.3 57.666 128.912 57.4824 128.467 57.3473C128.021 57.212 127.568 57.1443 127.106 57.1443C126.45 57.1443 125.893 57.243 125.44 57.4455L125.44 57.4455L125.439 57.4458C124.996 57.6473 124.659 57.9244 124.435 58.28C124.214 58.6246 124.103 59.0068 124.103 59.4238C124.103 59.9324 124.233 60.3525 124.502 60.6727L124.502 60.6727L124.504 60.675C124.772 60.9756 125.094 61.1995 125.468 61.3458L125.468 61.346C125.84 61.4883 126.327 61.6334 126.928 61.7816L126.929 61.7819C127.455 61.9058 127.87 62.0251 128.175 62.1394C128.472 62.2508 128.718 62.4094 128.916 62.6142C129.102 62.8072 129.2 63.0692 129.2 63.4124C129.2 63.8501 129.019 64.2029 128.649 64.4786C128.28 64.7538 127.72 64.9 126.954 64.9C126.431 64.9 125.931 64.8091 125.455 64.6277C124.984 64.4378 124.614 64.1971 124.34 63.908L124.24 63.8032L124.166 63.9268L123.897 64.37L123.854 64.4411L123.911 64.502C124.228 64.8437 124.664 65.1201 125.211 65.3344Z" fill="#4E4F30" stroke="#4E4F30" stroke-width="0.220391"/>
<path d="M114.743 64.9402V64.83H114.633H109.705V61.7032H113.945H114.055V61.593V61.0682V60.958H113.945H109.705V57.9595H114.458H114.568V57.8493V57.3129V57.2027H114.458H109H108.89V57.3129V65.4767V65.5869H109H114.633H114.743V65.4767V64.9402Z" fill="#4E4F30" stroke="#4E4F30" stroke-width="0.220391"/>
<path d="M92.0723 57.2027H91.9621V57.3129V65.4767V65.5869H92.0723H95.3028C96.1657 65.5869 96.9342 65.4087 97.6055 65.0492C98.2833 64.6903 98.8116 64.1944 99.1879 63.5621L99.1882 63.5615C99.5644 62.9211 99.7515 62.1979 99.7515 61.3948C99.7515 60.5918 99.5645 59.8723 99.188 59.2394C98.8119 58.5993 98.2835 58.0994 97.6055 57.7404C96.9343 57.3809 96.1657 57.2027 95.3028 57.2027H92.0723ZM97.1991 58.4017L97.1991 58.4017L97.2001 58.4022C97.7576 58.6885 98.1847 59.09 98.4847 59.6074C98.7848 60.1252 98.9363 60.7199 98.9363 61.3948C98.9363 62.0697 98.7848 62.6644 98.4847 63.1822C98.1847 63.6997 97.7573 64.1052 97.1996 64.3993C96.6423 64.6853 95.9955 64.83 95.2562 64.83H92.7773V57.9595H95.2562C95.9953 57.9595 96.6419 58.108 97.1991 58.4017Z" fill="#4E4F30" stroke="#4E4F30" stroke-width="0.220391"/>
<path fill-rule="evenodd" clip-rule="evenodd" d="M306.826 16.4096H54.4538V77.6841H306.826V16.4096ZM53.5865 15.4812V78.6125H307.693V15.4812H53.5865Z" fill="#C3BDA7"/>
<path d="M46.5725 0.0390625H68.1272L74.8166 47.0507V94.0623H46.5725V0.0390625Z" fill="white"/>
<path d="M17.8365 76.319H19.5128C24.5415 76.319 26.2178 72.0086 26.2178 66.3213V27.7676C26.2178 22.0803 24.5415 17.77 19.5128 17.77H17.8365V17.1115H49.5655C58.1264 17.1115 68.3036 21.4218 68.3036 31.8385C68.3036 40.3993 61.7184 45.4281 51.8405 47.0445C66.0287 47.3438 72.135 54.1685 72.135 61.8314C72.135 73.3855 62.2571 76.9775 54.1154 76.9775H17.8365V76.319ZM30.7077 47.6431V66.3213C30.7077 72.0086 31.5459 76.2591 40.1067 76.2591H52.1398C60.1618 76.2591 67.6451 71.5895 67.6451 61.9511C67.6451 51.5943 59.0244 47.6431 48.009 47.6431H30.7077ZM30.7077 47.0445H44.1776C55.4923 47.0445 63.215 42.315 63.215 31.8984C63.215 23.8164 56.9291 17.8897 43.2197 17.8897C42.3816 17.8897 41.0047 17.8298 40.1067 17.8298C31.486 17.8298 30.7077 22.0803 30.7077 27.7676V47.0445Z" fill="#4E4F30"/>
<path d="M47.161 45.9042L14.7554 38.2371V49.4913L47.161 57.1584V45.9042Z" fill="white"/>
<path d="M48.349 16.1532L13.5674 9.72937V19.8112C13.5674 19.8112 20.7997 19.55 27.7881 20.8006C34.7764 22.0511 48.349 26.2351 48.349 26.2351V16.1532Z" fill="white"/>
<path d="M49.1117 85.6651V72.0527C49.1117 72.0527 34.3015 74.2447 27.8012 73.4132C21.301 72.5818 13.5674 69.1606 13.5674 69.1606V80.2062L49.1117 85.6651Z" fill="white"/>
<path d="M0.230713 66.0981L3.70294 62.5061C9.80928 72.4439 18.2504 76.5746 29.3256 76.5148C40.7002 76.4549 48.9018 70.8275 48.9018 64.0626C48.9018 42.6306 3.10428 55.0229 3.10428 31.8547C3.10428 23.5932 11.6651 15.7507 26.931 15.7507C35.2523 15.7507 44.7112 18.1454 49.4406 21.4979L46.8065 25.9878C43.0349 22.4557 35.7313 17.1277 24.2969 17.1277C12.9822 17.1277 6.21732 22.7551 6.21732 29.1009C6.21732 50.7125 51.7155 38.2604 51.7155 61.9673C51.7155 70.2887 42.8553 77.4128 29.2657 77.4128C17.532 77.4128 6.03772 74.8984 0.230713 66.0981Z" fill="#4E4F30"/>
</svg>
