<svg width="266" height="66" viewBox="0 0 266 66" fill="none" xmlns="http://www.w3.org/2000/svg">
<path fill-rule="evenodd" clip-rule="evenodd" d="M265.092 0.870395H0.90785V54.6023H265.092V0.870395ZM0 0.0562744V55.4164H266V0.0562744H0Z" fill="#C3BDA7"/>
<path d="M225.723 15.7838V15.9211H225.861H226.43C227.237 15.9211 227.762 16.262 228.093 16.8276C228.431 17.4044 228.573 18.225 228.573 19.1827V32.29C228.573 33.2478 228.431 34.0683 228.093 34.6452C227.762 35.2107 227.237 35.5516 226.43 35.5516H225.861H225.723V35.689V35.9129V36.0503H225.861H233.086H233.223V35.9129V35.689V35.5516H233.086H232.516C231.71 35.5516 231.185 35.2107 230.854 34.6452C230.516 34.0683 230.374 33.2478 230.374 32.29V28.8196C231.284 27.7513 232.533 26.3077 233.956 24.7258L243.217 36.0001L243.259 36.0503H243.323H245.298H245.588L245.404 35.8257L235.181 23.3804C235.257 23.2978 235.333 23.2151 235.408 23.1324C237.009 21.3867 238.617 19.6319 240.209 18.2852C241.907 16.849 243.558 15.9008 245.135 15.9008H245.272V15.7634V15.5599V15.4225H245.135H236.872H236.734V15.5599V15.7431V15.8804H236.872C237.484 15.8804 238.03 15.9667 238.417 16.1948C238.793 16.4157 239.034 16.7765 239.034 17.3713C239.034 17.5534 238.962 17.7945 238.813 18.0948C238.665 18.3924 238.448 18.7356 238.173 19.1181C237.623 19.883 236.85 20.7925 235.96 21.7906C235.394 22.4251 234.781 23.0952 234.15 23.7854C232.888 25.1655 231.552 26.6257 230.374 28.0411V19.1827C230.374 18.225 230.516 17.4044 230.854 16.8276C231.185 16.262 231.71 15.9211 232.516 15.9211H233.086H233.223V15.7838V15.5599V15.4225H233.086H225.861H225.723V15.5599V15.7838Z" fill="#444444" stroke="#444444" stroke-width="0.274766"/>
<path d="M210.65 35.2259C208.561 35.2259 206.572 34.5683 205.106 33.1873C203.642 31.808 202.687 29.6942 202.687 26.754C202.687 19.9823 208.027 16.2264 212.97 16.2264C215.088 16.2264 217.123 16.9188 218.628 18.3535C220.131 19.7865 221.116 21.972 221.116 24.9833C221.116 31.4449 215.639 35.2259 210.65 35.2259ZM211.871 15.1171C205.895 15.1171 201.048 19.8985 201.048 25.7567C201.048 31.6155 205.896 36.3555 211.871 36.3555C217.847 36.3555 222.694 31.6155 222.694 25.7567C222.694 19.8985 217.847 15.1171 211.871 15.1171Z" fill="#444444" stroke="#444444" stroke-width="0.274766"/>
<path d="M185.975 35.2259C183.887 35.2259 181.898 34.5683 180.432 33.1873C178.968 31.808 178.012 29.6942 178.012 26.754C178.012 19.9823 183.353 16.2264 188.296 16.2264C190.414 16.2264 192.449 16.9188 193.953 18.3535C195.456 19.7865 196.442 21.972 196.442 24.9833C196.442 31.4449 190.964 35.2259 185.975 35.2259ZM187.197 15.1171C181.22 15.1171 176.374 19.8985 176.374 25.7567C176.374 31.6155 181.221 36.3555 187.197 36.3555C193.172 36.3555 198.019 31.6155 198.019 25.7567C198.019 19.8985 193.173 15.1171 187.197 15.1171Z" fill="#444444" stroke="#444444" stroke-width="0.274766"/>
<path d="M154.915 35.9129V36.0503H155.052H162.278H162.415V35.9129V35.689V35.5516H162.278H161.708C160.901 35.5516 160.377 35.2107 160.045 34.6452C159.708 34.0683 159.566 33.2478 159.566 32.29V25.8738H162.051L170.66 36.0019L170.701 36.0503H170.765H172.759H173.057L172.864 35.8239L164.407 25.8738H166.531C167.825 25.8738 169.521 25.6589 170.898 24.8843C172.286 24.1041 173.345 22.7579 173.345 20.526C173.345 18.7162 172.52 17.4328 171.263 16.6077C170.012 15.7868 168.339 15.4225 166.633 15.4225H155.052H154.915V15.5599V15.7838V15.9211H155.052H155.622C156.429 15.9211 156.953 16.262 157.285 16.8276C157.622 17.4044 157.764 18.225 157.764 19.1827V32.29C157.764 33.2478 157.622 34.0683 157.285 34.6452C156.953 35.2107 156.429 35.5516 155.622 35.5516H155.052H154.915V35.689V35.9129ZM165.941 25.2937H159.566V16.0026H165.941C167.533 16.0026 168.935 16.3404 169.936 17.0702C170.93 17.7951 171.543 18.9174 171.543 20.526C171.543 22.1875 170.929 23.3719 169.933 24.1446C168.932 24.9213 167.53 25.2937 165.941 25.2937Z" fill="#444444" stroke="#444444" stroke-width="0.274766"/>
<path d="M133.288 35.5516H133.151V35.689V35.9129V36.0503H133.288H145.622C147.023 36.0503 148.584 35.7418 149.8 34.9253C151.023 34.1038 151.886 32.774 151.886 30.7636C151.886 29.4219 151.35 28.1507 150.194 27.2049C149.214 26.4024 147.796 25.8406 145.899 25.6589C147.144 25.3415 148.203 24.8378 148.997 24.1401C150.006 23.2543 150.583 22.0617 150.583 20.5667C150.583 18.7432 149.689 17.4511 148.428 16.6205C147.171 15.7933 145.55 15.4225 144.075 15.4225H133.288H133.151V15.5599V15.7838V15.9211H133.288H133.858C134.665 15.9211 135.189 16.262 135.52 16.8276C135.858 17.4044 136 18.225 136 19.1827V32.29C136 33.2478 135.858 34.0683 135.52 34.6452C135.189 35.2107 134.665 35.5516 133.858 35.5516H133.288ZM137.801 32.29V26.0773H143.546C145.406 26.0773 147.044 26.4114 148.214 27.1671C149.374 27.917 150.085 29.0891 150.085 30.8043C150.085 32.4034 149.466 33.58 148.521 34.3593C147.574 35.1415 146.289 35.5313 144.95 35.5313H140.86C139.423 35.5313 138.679 35.1749 138.282 34.624C137.876 34.0613 137.801 33.2599 137.801 32.29ZM142.244 25.599H137.801V19.1827C137.801 18.2121 137.871 17.411 138.274 16.8484C138.669 16.2981 139.413 15.9415 140.86 15.9415C141.01 15.9415 141.201 15.9465 141.393 15.9516L141.404 15.9519C141.59 15.9569 141.776 15.9618 141.918 15.9618C144.231 15.9618 145.897 16.4621 146.982 17.2848C148.061 18.1039 148.578 19.2526 148.578 20.5871C148.578 22.3195 147.939 23.5637 146.84 24.3795C145.736 25.1999 144.151 25.599 142.244 25.599Z" fill="#444444" stroke="#444444" stroke-width="0.274766"/>
<path d="M112.542 15.4225H112.404V15.5599V15.7634V15.896L112.537 15.9007L113.107 15.9211C113.917 15.95 114.443 16.2927 114.774 16.8511C115.112 17.4201 115.254 18.2251 115.254 19.1827V32.29C115.254 33.2477 115.112 34.0736 114.774 34.6558C114.442 35.2267 113.917 35.572 113.112 35.572H112.542H112.404V35.7093V35.9129V36.0503H112.542H129.984H130.122V35.9129V33.8979V33.6879L129.929 33.7721C126.376 35.3267 122.311 35.4702 119.197 35.4702C118.387 35.4702 117.864 35.1467 117.534 34.6027C117.197 34.0471 117.055 33.248 117.055 32.29V25.8738H129.374H129.511V25.7364V24.3117V24.1743H129.374H117.055V19.1827C117.055 18.2248 117.197 17.4257 117.534 16.8701C117.864 16.326 118.387 16.0026 119.197 16.0026C122.311 16.0026 126.376 16.1461 129.929 17.7007L130.122 17.7849V17.5748V15.5599V15.4225H129.984H112.542Z" fill="#444444" stroke="#444444" stroke-width="0.274766"/>
<path d="M87.2617 35.9129V36.0503H87.399H94.95H95.0874V35.9129V35.7093V35.572H94.95C94.1934 35.572 93.5584 35.3993 93.0261 34.9951C92.4921 34.5895 92.0474 33.9402 91.693 32.9607C90.982 30.9963 90.6504 27.7517 90.6504 22.6427V17.97L105.917 36.0017L105.958 36.0503H106.022H108.017H108.313L108.121 35.824L106.566 33.99V19.8544C106.566 18.4808 106.795 17.4916 107.237 16.8487C107.672 16.2159 108.328 15.9008 109.238 15.9008H109.375V15.7634V15.5599V15.4225H109.238H101.687H101.549V15.5599V15.7634V15.9008H101.687C102.444 15.9008 103.079 16.0734 103.611 16.4777C104.145 16.8832 104.589 17.5326 104.944 18.512C105.655 20.4765 105.986 23.7211 105.986 28.83V33.3602L90.8418 15.4711L90.8006 15.4225H90.7369H88.7423H88.4459L88.6375 15.6487L90.0704 17.3402V31.6184C90.0704 32.9919 89.8423 33.9812 89.4 34.624C88.9647 35.2568 88.3089 35.572 87.399 35.572H87.2617V35.7093V35.9129Z" fill="#444444" stroke="#444444" stroke-width="0.274766"/>
<path d="M72.1886 35.2259C70.0999 35.2259 68.1108 34.5683 66.6451 33.1873C65.1811 31.808 64.2255 29.6942 64.2255 26.754C64.2255 19.9823 69.566 16.2264 74.5089 16.2264C76.6269 16.2264 78.6618 16.9188 80.1663 18.3535C81.6692 19.7865 82.6552 21.972 82.6552 24.9833C82.6552 31.4449 77.1775 35.2259 72.1886 35.2259ZM73.4098 15.1171C67.4336 15.1171 62.5871 19.8985 62.5871 25.7567C62.5871 31.6155 67.4343 36.3555 73.4098 36.3555C79.3853 36.3555 84.2325 31.6155 84.2325 25.7567C84.2325 19.8985 79.386 15.1171 73.4098 15.1171Z" fill="#444444" stroke="#444444" stroke-width="0.274766"/>
<path d="M41.3724 17.5748V17.7921L41.5687 17.6989C42.9595 17.0391 43.9812 16.6271 45.1565 16.3734C46.3061 16.1253 47.6089 16.0274 49.5543 16.0041V32.29C49.5543 33.2477 49.4124 34.0736 49.0742 34.6558C48.7425 35.2267 48.2178 35.572 47.4121 35.572H46.8423H46.7049V35.7093V35.9129V36.0503H46.8423H54.0676H54.205V35.9129V35.7093V35.572H54.0676H53.4977C52.692 35.572 52.1673 35.2267 51.8356 34.6558C51.4974 34.0736 51.3555 33.2477 51.3555 32.29V16.0041C53.3111 16.0274 54.6189 16.1253 55.7712 16.3735C56.949 16.6271 57.9707 17.0391 59.3615 17.6989L59.5578 17.7921V17.5748V15.5599V15.4225H59.4204H41.5098H41.3724V15.5599V17.5748Z" fill="#444444" stroke="#444444" stroke-width="0.274766"/>
<path d="M20.6035 32.2759L20.5269 32.3551L20.5876 32.4471C22.6032 35.5016 26.5775 36.3555 30.5735 36.3555C35.2247 36.3555 38.3432 33.9101 38.3432 30.967C38.3432 29.9364 38.0956 29.095 37.6574 28.4009C37.2198 27.7078 36.5971 27.1693 35.8585 26.7357C34.3864 25.8715 32.4306 25.4117 30.5018 24.979C30.415 24.9595 30.3283 24.9401 30.2417 24.9207C28.3911 24.5064 26.5848 24.1021 25.2184 23.3838C24.506 23.0093 23.9214 22.5533 23.5147 21.9734C23.1093 21.3952 22.875 20.6858 22.875 19.7932C22.875 18.7673 23.421 17.7884 24.4478 17.061C25.4754 16.333 26.9825 15.86 28.8842 15.86C32.7245 15.86 35.1756 17.6483 36.443 18.8352L36.5684 18.9526L36.6554 18.8044L37.5509 17.2779L37.6147 17.1692L37.5119 17.0963C36.6887 16.5128 35.4647 16.019 34.0979 15.6709C32.7291 15.3223 31.2065 15.1171 29.7797 15.1171C24.5551 15.1171 21.5418 17.8094 21.5418 20.7295C21.5418 21.7381 21.7915 22.5603 22.2332 23.2376C22.6741 23.9137 23.3011 24.4374 24.0443 24.8582C25.5256 25.697 27.4938 26.1401 29.4352 26.56C29.508 26.5758 29.5807 26.5915 29.6534 26.6072C31.5312 27.0128 33.3673 27.4094 34.7535 28.1243C35.4708 28.4942 36.0592 28.9454 36.4684 29.5197C36.8762 30.0921 37.1119 30.7949 37.1119 31.6794C37.1119 32.7688 36.4517 33.7841 35.2968 34.5358C34.1424 35.2871 32.5056 35.7654 30.5931 35.7754C28.7279 35.7855 27.0926 35.4428 25.6694 34.6849C24.2466 33.9272 23.0271 32.7501 21.9998 31.0783L21.9071 30.9274L21.784 31.0547L20.6035 32.2759Z" fill="#444444" stroke="#444444" stroke-width="0.274766"/>
<path d="M52.6152 44.8329H213.385V66H52.6152V44.8329Z" fill="white"/>
<path d="M202.881 60.0863L202.918 60.1387H202.983H203.75H203.993L203.852 59.941L201.637 56.8401C202.275 56.6254 202.777 56.2807 203.135 55.8026C203.533 55.2748 203.729 54.6298 203.729 53.8752C203.729 52.865 203.386 52.0645 202.692 51.4905C202.001 50.9105 201.057 50.6281 199.874 50.6281H196.553H196.428V50.7531V60.0137V60.1387H196.553H197.228H197.353V60.0137V57.1091H199.874C200.132 57.1091 200.413 57.0899 200.715 57.0517L202.881 60.0863ZM202.055 52.1184L202.055 52.1184L202.056 52.1192C202.542 52.5231 202.791 53.1021 202.791 53.8752C202.791 54.648 202.543 55.2319 202.056 55.6448C201.566 56.0511 200.845 56.2638 199.874 56.2638H197.353V51.4866H199.874C200.845 51.4866 201.566 51.7036 202.055 52.1184Z" fill="#444444" stroke="#444444" stroke-width="0.25"/>
<path d="M183.283 57.8406L183.283 57.8406L183.284 57.8416C183.718 58.575 184.312 59.1549 185.063 59.58L185.064 59.5806C185.816 59.9974 186.657 60.2048 187.585 60.2048C188.513 60.2048 189.354 59.9974 190.106 59.5806C190.858 59.1642 191.447 58.5883 191.873 57.8543C192.309 57.1194 192.526 56.2947 192.526 55.3833C192.526 54.472 192.309 53.6473 191.873 52.9124C191.447 52.1784 190.858 51.6025 190.106 51.1861C189.354 50.7693 188.513 50.5619 187.585 50.5619C186.657 50.5619 185.815 50.7738 185.063 51.1996C184.312 51.616 183.718 52.1916 183.284 52.9251L183.284 52.9251L183.283 52.9261C182.857 53.6608 182.645 54.4809 182.645 55.3833C182.645 56.2858 182.857 57.1059 183.283 57.8406ZM191.062 53.3688L191.062 53.3695C191.412 53.9663 191.588 54.6366 191.588 55.3833C191.588 56.13 191.412 56.8049 191.062 57.4108C190.712 58.0088 190.234 58.478 189.627 58.8199C189.021 59.1613 188.341 59.333 187.585 59.333C186.829 59.333 186.144 59.1614 185.529 58.8197C184.923 58.4778 184.445 58.0087 184.095 57.4107C183.745 56.8048 183.569 56.13 183.569 55.3833C183.569 54.6366 183.745 53.9663 184.094 53.3695L184.094 53.3695L184.095 53.3688C184.445 52.762 184.923 52.2887 185.529 51.9469C186.144 51.6053 186.829 51.4337 187.585 51.4337C188.341 51.4337 189.021 51.6054 189.627 51.9468C190.234 52.2885 190.711 52.7619 191.062 53.3688Z" fill="#444444" stroke="#444444" stroke-width="0.25"/>
<path d="M172.801 59.5803L172.801 59.5806C173.554 59.9974 174.395 60.2048 175.323 60.2048C175.998 60.2048 176.627 60.0922 177.207 59.8656C177.796 59.6388 178.298 59.3066 178.708 58.8688L178.79 58.7819L178.707 58.6963L178.283 58.2597L178.195 58.1691L178.106 58.2578C177.381 58.9734 176.466 59.333 175.349 59.333C174.593 59.333 173.908 59.1613 173.293 58.8196C172.677 58.4775 172.196 58.0084 171.846 57.4108C171.496 56.8048 171.32 56.13 171.32 55.3833C171.32 54.6366 171.496 53.9663 171.845 53.3695L171.845 53.3695L171.846 53.3688C172.196 52.7623 172.678 52.289 173.293 51.9471C173.908 51.6054 174.593 51.4337 175.349 51.4337C176.476 51.4337 177.391 51.7893 178.106 52.4956L178.195 52.5843L178.283 52.4937L178.707 52.0572L178.79 51.9716L178.708 51.8847C178.298 51.447 177.801 51.119 177.219 50.9009C176.639 50.6744 176.007 50.5619 175.323 50.5619C174.395 50.5619 173.554 50.7693 172.801 51.1861L172.801 51.1864C172.058 51.6029 171.469 52.1786 171.035 52.9119L171.035 52.9119L171.034 52.9129C170.608 53.6478 170.395 54.4723 170.395 55.3833C170.395 56.2944 170.608 57.1189 171.034 57.8538L171.034 57.8538L171.035 57.8548C171.469 58.5881 172.058 59.1638 172.801 59.5803Z" fill="#444444" stroke="#444444" stroke-width="0.25"/>
<path d="M166.493 59.4051V59.2801H166.368H160.777V55.7333H165.587H165.712V55.6083V55.0129V54.8879H165.587H160.777V51.4866H166.169H166.294V51.3616V50.7531V50.6281H166.169H159.978H159.853V50.7531V60.0137V60.1387H159.978H166.368H166.493V60.0137V59.4051Z" fill="#444444" stroke="#444444" stroke-width="0.25"/>
<path d="M147.239 50.6281H147.114V50.7531V60.0137V60.1387H147.239H150.904C151.883 60.1387 152.754 59.9365 153.516 59.5286C154.285 59.1215 154.884 58.5591 155.311 57.8418L155.311 57.8412C155.738 57.1148 155.95 56.2944 155.95 55.3834C155.95 54.4725 155.738 53.6564 155.311 52.9385C154.884 52.2124 154.285 51.6453 153.516 51.238C152.754 50.8302 151.883 50.6281 150.904 50.6281H147.239ZM153.055 51.9881L153.055 51.9881L153.056 51.9888C153.688 52.3135 154.173 52.7689 154.513 53.3558C154.854 53.9432 155.025 54.6178 155.025 55.3834C155.025 56.1489 154.854 56.8236 154.513 57.4109C154.173 57.998 153.688 58.458 153.055 58.7915C152.423 59.116 151.689 59.2801 150.851 59.2801H148.039V51.4866H150.851C151.689 51.4866 152.423 51.6551 153.055 51.9881Z" fill="#444444" stroke="#444444" stroke-width="0.25"/>
<path d="M138.599 60.2322L138.692 60.3294L138.782 60.2301L139.179 59.7935L139.257 59.7077L139.177 59.6235L137.867 58.2377C138.204 57.6717 138.457 56.9746 138.627 56.1495L138.649 56.0391L138.542 56.0051L138 55.8331L137.866 55.7907L137.839 55.9283C137.713 56.5733 137.524 57.1365 137.273 57.6197L134.76 54.9615C135.478 54.5325 135.993 54.1405 136.297 53.7846C136.633 53.3931 136.804 52.9501 136.804 52.4597C136.804 51.8819 136.606 51.4171 136.204 51.0814C135.814 50.7392 135.288 50.5751 134.641 50.5751C133.949 50.5751 133.384 50.753 132.959 51.1216C132.532 51.4917 132.32 51.9862 132.32 52.5919C132.32 52.982 132.409 53.35 132.585 53.6942L132.585 53.6942L132.586 53.6954C132.75 54.007 133.043 54.3831 133.458 54.8222C132.646 55.3087 132.057 55.7732 131.7 56.2174C131.321 56.6792 131.13 57.1961 131.13 57.7647C131.13 58.2399 131.265 58.6671 131.537 59.0419C131.808 59.4157 132.185 59.7023 132.661 59.9039C133.137 60.1054 133.675 60.2048 134.271 60.2048C134.921 60.2048 135.515 60.092 136.053 59.8642L136.053 59.8642L136.054 59.8635C136.551 59.6447 136.985 59.3326 137.356 58.9282L138.599 60.2322ZM135.629 51.6531L135.629 51.6531L135.631 51.6547C135.855 51.8478 135.971 52.1152 135.971 52.4729C135.971 52.7992 135.849 53.1005 135.595 53.3802C135.345 53.646 134.884 53.9787 134.201 54.3786C133.8 53.9479 133.536 53.6153 133.401 53.3778C133.261 53.1217 133.192 52.8602 133.192 52.5919C133.192 52.2079 133.317 51.9126 133.561 51.6925L133.561 51.6924C133.814 51.463 134.169 51.3411 134.641 51.3411C135.08 51.3411 135.403 51.4504 135.629 51.6531ZM136.789 58.3259C136.178 59.0401 135.352 59.3992 134.297 59.3992C133.612 59.3992 133.063 59.2367 132.639 58.9216C132.229 58.6093 132.028 58.2092 132.028 57.7117C132.028 57.2927 132.166 56.9152 132.448 56.5751C132.732 56.2425 133.249 55.8492 134.011 55.3961L136.789 58.3259Z" fill="#444444" stroke="#444444" stroke-width="0.25"/>
<path d="M121.227 50.7531V50.6281H121.102H120.427H120.302V50.7531V58.4341L114.228 50.676L114.191 50.6281H114.13H113.561H113.436V50.7531V60.0137V60.1387H113.561H114.236H114.361V60.0137V52.332L120.448 60.0908L120.485 60.1387H120.546H121.102H121.227V60.0137V50.7531Z" fill="#444444" stroke="#444444" stroke-width="0.25"/>
<path d="M108.72 55.298H108.595V55.423V58.5511C107.932 59.07 107.099 59.333 106.088 59.333C105.313 59.333 104.62 59.1612 104.006 58.8199C103.39 58.469 102.903 57.995 102.544 57.3969C102.194 56.7909 102.019 56.1206 102.019 55.3833C102.019 54.6366 102.195 53.9663 102.544 53.3695L102.544 53.3695L102.544 53.3688C102.895 52.7624 103.376 52.2891 103.992 51.9473C104.615 51.6055 105.313 51.4337 106.088 51.4337C106.657 51.4337 107.171 51.5199 107.632 51.6905L107.632 51.6905L107.634 51.6914C108.1 51.8524 108.521 52.1195 108.896 52.4951L108.988 52.5862L109.076 52.4924L109.499 52.0426L109.581 51.9552L109.497 51.8695C109.078 51.4413 108.573 51.1185 107.984 50.9008C107.404 50.6743 106.767 50.5619 106.074 50.5619C105.129 50.5619 104.275 50.7691 103.514 51.1858L103.513 51.1861C102.762 51.6025 102.168 52.1782 101.733 52.9119L101.733 52.9119L101.733 52.9129C101.306 53.6478 101.094 54.4723 101.094 55.3833C101.094 56.2944 101.306 57.1189 101.733 57.8538L101.733 57.8538L101.733 57.8548C102.168 58.5885 102.762 59.1642 103.513 59.5806L103.514 59.5809C104.275 59.9975 105.125 60.2048 106.061 60.2048C106.718 60.2048 107.341 60.1013 107.928 59.8935C108.525 59.6853 109.035 59.381 109.455 58.9795L109.493 58.9426V58.8892V55.423V55.298H109.368H108.72Z" fill="#444444" stroke="#444444" stroke-width="0.25"/>
<path d="M96.3916 50.6281H96.2666V50.7531V60.0137V60.1387H96.3916H97.0663H97.1913V60.0137V50.7531V50.6281H97.0663H96.3916Z" fill="#444444" stroke="#444444" stroke-width="0.25"/>
<path d="M86.9147 59.8522L86.9147 59.8523L86.9168 59.853C87.5485 60.0877 88.2115 60.2048 88.905 60.2048C89.6489 60.2048 90.2845 60.0929 90.8073 59.8635C91.3266 59.6358 91.7186 59.3264 91.973 58.9312C92.2334 58.5402 92.3638 58.1062 92.3638 57.6324C92.3638 57.0637 92.2122 56.5989 91.8956 56.2527C91.6002 55.9116 91.2398 55.6577 90.8159 55.4918C90.403 55.3303 89.8547 55.1656 89.1731 54.9974L89.173 54.9974C88.5666 54.848 88.0912 54.7082 87.745 54.5784C87.4079 54.452 87.1287 54.2721 86.9047 54.0398C86.6936 53.8208 86.5826 53.5237 86.5826 53.1343C86.5826 52.627 86.7845 52.2176 87.1959 51.8967C87.606 51.5769 88.2221 51.4072 89.0638 51.4072C89.483 51.4072 89.9075 51.4714 90.3376 51.6004L90.3382 51.6006C90.7758 51.7293 91.1738 51.9177 91.5328 52.1656L91.6549 52.2499L91.7172 52.1153L91.9686 51.5729L92.0124 51.4784L91.9274 51.4183C91.5532 51.1536 91.1129 50.9454 90.6082 50.7922C90.1027 50.6387 89.5877 50.5619 89.0638 50.5619C88.32 50.5619 87.6884 50.6738 87.1739 50.9035L87.1739 50.9035L87.1731 50.9038C86.6703 51.1324 86.288 51.4468 86.0345 51.8502C85.7834 52.2411 85.6579 52.6746 85.6579 53.1476C85.6579 53.7246 85.8047 54.2011 86.1106 54.5643L86.1105 54.5643L86.1129 54.5669C86.417 54.9079 86.7817 55.1618 87.2058 55.3278L87.2066 55.3281C87.6279 55.4894 88.1802 55.654 88.8618 55.8222L88.8631 55.8225C89.4605 55.9631 89.931 56.0984 90.2767 56.228C90.6138 56.3544 90.893 56.5343 91.1169 56.7666C91.3281 56.9856 91.4391 57.2827 91.4391 57.672C91.4391 58.1686 91.2345 58.5688 90.8147 58.8815C90.3957 59.1937 89.7612 59.3595 88.8918 59.3595C88.2985 59.3595 87.7319 59.2564 87.1911 59.0506C86.6575 58.8353 86.2376 58.5622 85.9265 58.2343L85.8137 58.1154L85.7288 58.2556L85.4246 58.7583L85.3757 58.839L85.4399 58.9081C85.7998 59.2957 86.2936 59.6092 86.9147 59.8522Z" fill="#444444" stroke="#444444" stroke-width="0.25"/>
<path d="M81.5037 59.4051V59.2801H81.3787H75.7886V55.7333H80.5982H80.7232V55.6083V55.0129V54.8879H80.5982H75.7886V51.4866H81.1803H81.3053V51.3616V50.7531V50.6281H81.1803H74.9889H74.8639V50.7531V60.0137V60.1387H74.9889H81.3787H81.5037V60.0137V59.4051Z" fill="#444444" stroke="#444444" stroke-width="0.25"/>
<path d="M62.2501 50.6281H62.1251V50.7531V60.0137V60.1387H62.2501H65.9147C66.8935 60.1387 67.7654 59.9365 68.5268 59.5286C69.2956 59.1215 69.8949 58.5591 70.3217 57.8418L70.322 57.8412C70.7488 57.1148 70.961 56.2944 70.961 55.3834C70.961 54.4725 70.7489 53.6564 70.3219 52.9385C69.8952 52.2124 69.2959 51.6453 68.5267 51.238C67.7653 50.8302 66.8935 50.6281 65.9147 50.6281H62.2501ZM68.0657 51.9881L68.0657 51.9881L68.0669 51.9888C68.6992 52.3134 69.1838 52.7689 69.524 53.3558C69.8645 53.9432 70.0363 54.6178 70.0363 55.3834C70.0363 56.1489 69.8645 56.8236 69.524 57.4109C69.1837 57.998 68.6989 58.458 68.0663 58.7915C67.4342 59.116 66.7004 59.2801 65.8618 59.2801H63.0498V51.4866H65.8618C66.7002 51.4866 67.4337 51.6551 68.0657 51.9881Z" fill="#444444" stroke="#444444" stroke-width="0.25"/>
</svg>
