<svg width="316" height="97" viewBox="0 0 316 97" fill="none" xmlns="http://www.w3.org/2000/svg">
<path d="M278.082 30.4529V30.5771H278.206H278.722C279.451 30.5771 279.926 30.8854 280.225 31.397C280.531 31.9187 280.659 32.6609 280.659 33.5271V45.3821C280.659 46.2484 280.531 46.9905 280.225 47.5123C279.926 48.0238 279.451 48.3321 278.722 48.3321H278.206H278.082V48.4564V48.6589V48.7831H278.206H284.741H284.866V48.6589V48.4564V48.3321H284.741H284.226C283.497 48.3321 283.022 48.0238 282.722 47.5123C282.417 46.9905 282.289 46.2484 282.289 45.3821V42.2432C283.112 41.277 284.242 39.9713 285.529 38.5406L293.905 48.7377L293.942 48.7831H294.001H295.787H296.049L295.883 48.58L286.636 37.3237C286.705 37.249 286.773 37.1742 286.842 37.0994C288.289 35.5205 289.745 33.9333 291.184 32.7153C292.719 31.4163 294.213 30.5587 295.639 30.5587H295.764V30.4344V30.2504V30.1261H295.639H288.165H288.041V30.2504V30.416V30.5403H288.165C288.72 30.5403 289.213 30.6183 289.564 30.8246C289.904 31.0244 290.121 31.3508 290.121 31.8887C290.121 32.0534 290.056 32.2715 289.921 32.5431C289.788 32.8123 289.592 33.1227 289.343 33.4686C288.845 34.1605 288.146 34.9831 287.341 35.8858C286.829 36.4597 286.275 37.0658 285.704 37.6901C284.562 38.9383 283.354 40.259 282.289 41.5392V33.5271C282.289 32.6609 282.417 31.9187 282.722 31.397C283.022 30.8854 283.497 30.5771 284.226 30.5771H284.741H284.866V30.4529V30.2504V30.1261H284.741H278.206H278.082V30.2504V30.4529Z" fill="#4E4F30" stroke="#4E4F30" stroke-width="0.248515"/>
<path d="M264.449 48.0376C262.56 48.0376 260.761 47.4428 259.435 46.1937C258.111 44.9462 257.247 43.0343 257.247 40.375C257.247 34.2503 262.077 30.8533 266.548 30.8533C268.463 30.8533 270.304 31.4796 271.665 32.7771C273.024 34.0733 273.916 36.05 273.916 38.7735C273.916 44.6179 268.961 48.0376 264.449 48.0376ZM265.554 29.85C260.148 29.85 255.765 34.1745 255.765 39.473C255.765 44.7721 260.149 49.0593 265.554 49.0593C270.958 49.0593 275.342 44.7721 275.342 39.473C275.342 34.1745 270.959 29.85 265.554 29.85Z" fill="#4E4F30" stroke="#4E4F30" stroke-width="0.248515"/>
<path d="M242.132 48.0376C240.243 48.0376 238.444 47.4428 237.118 46.1937C235.794 44.9462 234.929 43.0343 234.929 40.375C234.929 34.2503 239.76 30.8533 244.23 30.8533C246.146 30.8533 247.986 31.4796 249.347 32.7771C250.707 34.0733 251.598 36.05 251.598 38.7735C251.598 44.6179 246.644 48.0376 242.132 48.0376ZM243.236 29.85C237.831 29.85 233.448 34.1745 233.448 39.473C233.448 44.7721 237.832 49.0593 243.236 49.0593C248.641 49.0593 253.025 44.7721 253.025 39.473C253.025 34.1745 248.641 29.85 243.236 29.85Z" fill="#4E4F30" stroke="#4E4F30" stroke-width="0.248515"/>
<path d="M214.039 48.6589V48.7831H214.163H220.698H220.822V48.6589V48.4564V48.3321H220.698H220.183C219.453 48.3321 218.979 48.0238 218.679 47.5123C218.374 46.9905 218.245 46.2484 218.245 45.3821V39.5789H220.493L228.28 48.7393L228.317 48.7831H228.374H230.178H230.447L230.273 48.5784L222.624 39.5789H224.545C225.715 39.5789 227.249 39.3845 228.495 38.6839C229.75 37.9783 230.708 36.7607 230.708 34.742C230.708 33.1051 229.962 31.9444 228.825 31.1981C227.693 30.4557 226.18 30.1261 224.638 30.1261H214.163H214.039V30.2504V30.4529V30.5771H214.163H214.679C215.408 30.5771 215.882 30.8854 216.182 31.397C216.488 31.9187 216.616 32.6609 216.616 33.5271V45.3821C216.616 46.2484 216.488 46.9905 216.182 47.5123C215.882 48.0238 215.408 48.3321 214.679 48.3321H214.163H214.039V48.4564V48.6589ZM224.012 39.0542H218.245V30.6507H224.012C225.451 30.6507 226.719 30.9564 227.625 31.6164C228.524 32.2721 229.079 33.2871 229.079 34.742C229.079 36.2448 228.523 37.316 227.622 38.0149C226.716 38.7174 225.449 39.0542 224.012 39.0542Z" fill="#4E4F30" stroke="#4E4F30" stroke-width="0.248515"/>
<path d="M194.478 48.3321H194.354V48.4564V48.6589V48.7831H194.478H205.634C206.901 48.7831 208.313 48.5042 209.412 47.7657C210.519 47.0227 211.299 45.8199 211.299 44.0015C211.299 42.788 210.814 41.6383 209.769 40.7828C208.883 40.057 207.6 39.5489 205.884 39.3845C207.011 39.0975 207.968 38.6419 208.686 38.0109C209.599 37.2096 210.121 36.131 210.121 34.7789C210.121 33.1295 209.312 31.9609 208.171 31.2097C207.035 30.4615 205.569 30.1261 204.235 30.1261H194.478H194.354V30.2504V30.4529V30.5771H194.478H194.994C195.723 30.5771 196.198 30.8854 196.497 31.397C196.803 31.9187 196.931 32.6609 196.931 33.5271V45.3821C196.931 46.2484 196.803 46.9905 196.497 47.5123C196.198 48.0238 195.723 48.3321 194.994 48.3321H194.478ZM198.56 45.3821V39.763H203.756C205.438 39.763 206.92 40.0652 207.978 40.7486C209.028 41.4269 209.67 42.487 209.67 44.0383C209.67 45.4847 209.11 46.5489 208.256 47.2537C207.399 47.9612 206.237 48.3137 205.026 48.3137H201.326C200.027 48.3137 199.354 47.9914 198.995 47.4932C198.628 46.9842 198.56 46.2593 198.56 45.3821ZM202.578 39.3304H198.56V33.5271C198.56 32.6492 198.623 31.9246 198.988 31.4158C199.345 30.918 200.018 30.5955 201.326 30.5955C201.462 30.5955 201.635 30.6001 201.808 30.6047L201.819 30.605C201.987 30.6095 202.155 30.6139 202.283 30.6139C204.376 30.6139 205.882 31.0664 206.863 31.8105C207.84 32.5514 208.308 33.5902 208.308 34.7973C208.308 36.3642 207.729 37.4895 206.736 38.2273C205.736 38.9694 204.303 39.3304 202.578 39.3304Z" fill="#4E4F30" stroke="#4E4F30" stroke-width="0.248515"/>
<path d="M175.714 30.1261H175.59V30.2504V30.4344V30.5543L175.709 30.5586L176.225 30.577C176.958 30.6032 177.434 30.9132 177.733 31.4183C178.038 31.9329 178.167 32.661 178.167 33.5271V45.3821C178.167 46.2483 178.038 46.9954 177.733 47.5219C177.433 48.0383 176.958 48.3505 176.229 48.3505H175.714H175.59V48.4748V48.6589V48.7831H175.714H191.49H191.614V48.6589V46.8364V46.6464L191.44 46.7226C188.226 48.1287 184.549 48.2585 181.733 48.2585C181.001 48.2585 180.527 47.9659 180.229 47.4738C179.924 46.9713 179.796 46.2486 179.796 45.3821V39.5789H190.938H191.062V39.4546V38.166V38.0418H190.938H179.796V33.5271C179.796 32.6607 179.924 31.9379 180.229 31.4354C180.527 30.9433 181.001 30.6507 181.733 30.6507C184.549 30.6507 188.226 30.7805 191.44 32.1866L191.614 32.2628V32.0728V30.2504V30.1261H191.49H175.714Z" fill="#4E4F30" stroke="#4E4F30" stroke-width="0.248515"/>
<path d="M152.849 48.6589V48.7831H152.973H159.803H159.927V48.6589V48.4748V48.3505H159.803C159.119 48.3505 158.544 48.1944 158.063 47.8287C157.58 47.4619 157.178 46.8746 156.857 45.9888C156.214 44.212 155.914 41.2774 155.914 36.6565V32.4303L169.722 48.7392L169.76 48.7831H169.817H171.621H171.889L171.716 48.5785L170.31 46.9197V34.1346C170.31 32.8923 170.516 31.9975 170.916 31.4161C171.31 30.8437 171.903 30.5587 172.726 30.5587H172.85V30.4344V30.2504V30.1261H172.726H165.896H165.772V30.2504V30.4344V30.5587H165.896C166.581 30.5587 167.155 30.7149 167.636 31.0805C168.119 31.4473 168.521 32.0346 168.842 32.9205C169.485 34.6972 169.785 37.6319 169.785 42.2527V46.3501L156.087 30.1701L156.05 30.1261H155.992H154.188H153.92L154.094 30.3307L155.39 31.8606V44.7747C155.39 46.017 155.183 46.9117 154.783 47.4931C154.389 48.0655 153.796 48.3505 152.973 48.3505H152.849V48.4748V48.6589Z" fill="#4E4F30" stroke="#4E4F30" stroke-width="0.248515"/>
<path d="M139.216 48.0376C137.327 48.0376 135.528 47.4428 134.202 46.1937C132.878 44.9462 132.014 43.0343 132.014 40.375C132.014 34.2503 136.844 30.8533 141.315 30.8533C143.23 30.8533 145.071 31.4796 146.432 32.7771C147.791 34.0733 148.683 36.05 148.683 38.7735C148.683 44.6179 143.728 48.0376 139.216 48.0376ZM140.321 29.85C134.915 29.85 130.532 34.1745 130.532 39.473C130.532 44.7721 134.916 49.0593 140.321 49.0593C145.725 49.0593 150.109 44.7721 150.109 39.473C150.109 34.1745 145.726 29.85 140.321 29.85Z" fill="#4E4F30" stroke="#4E4F30" stroke-width="0.248515"/>
<path d="M111.344 32.0728V32.2693L111.522 32.1851C112.779 31.5882 113.704 31.2156 114.767 30.9862C115.806 30.7618 116.985 30.6732 118.744 30.6521V45.3821C118.744 46.2483 118.616 46.9954 118.31 47.5219C118.01 48.0383 117.535 48.3505 116.807 48.3505H116.291H116.167V48.4748V48.6589V48.7831H116.291H122.826H122.951V48.6589V48.4748V48.3505H122.826H122.311C121.582 48.3505 121.108 48.0383 120.808 47.5219C120.502 46.9954 120.373 46.2483 120.373 45.3821V30.6521C122.142 30.6732 123.325 30.7618 124.367 30.9862C125.432 31.2156 126.357 31.5882 127.614 32.1851L127.792 32.2693V32.0728V30.2504V30.1261H127.668H111.468H111.344V30.2504V32.0728Z" fill="#4E4F30" stroke="#4E4F30" stroke-width="0.248515"/>
<path d="M92.5593 45.3694L92.4901 45.4411L92.545 45.5242C94.368 48.287 97.9626 49.0593 101.577 49.0593C105.784 49.0593 108.604 46.8475 108.604 44.1856C108.604 43.2534 108.38 42.4924 107.984 41.8646C107.588 41.2377 107.025 40.7507 106.357 40.3585C105.025 39.5769 103.257 39.161 101.512 38.7696C101.433 38.752 101.355 38.7345 101.277 38.7169C99.6029 38.3422 97.9692 37.9765 96.7334 37.3269C96.089 36.9882 95.5602 36.5758 95.1924 36.0512C94.8257 35.5283 94.6138 34.8866 94.6138 34.0793C94.6138 33.1515 95.1077 32.266 96.0363 31.6081C96.9658 30.9497 98.3289 30.5219 100.049 30.5219C103.522 30.5219 105.739 32.1393 106.886 33.2128L106.999 33.319L107.078 33.185L107.888 31.8043L107.945 31.706L107.852 31.6401C107.108 31.1123 106.001 30.6657 104.765 30.3509C103.526 30.0356 102.149 29.85 100.859 29.85C96.1334 29.85 93.408 32.285 93.408 34.9261C93.408 35.8383 93.6338 36.5821 94.0333 37.1946C94.4321 37.8061 94.9992 38.2798 95.6715 38.6604C97.0112 39.4191 98.7914 39.8198 100.547 40.1997C100.613 40.2139 100.679 40.2281 100.745 40.2423C102.443 40.6092 104.104 40.9679 105.357 41.6144C106.006 41.949 106.538 42.3571 106.908 42.8765C107.277 43.3943 107.491 44.0299 107.491 44.8299C107.491 45.8153 106.893 46.7335 105.849 47.4134C104.805 48.0929 103.324 48.5255 101.595 48.5346C99.9075 48.5437 98.4285 48.2337 97.1412 47.5482C95.8543 46.8629 94.7514 45.7983 93.8222 44.2862L93.7384 44.1497L93.627 44.2649L92.5593 45.3694Z" fill="#4E4F30" stroke="#4E4F30" stroke-width="0.248515"/>
<path d="M293.191 67.242L293.225 67.2893H293.283H293.977H294.197L294.069 67.1106L292.066 64.3059C292.643 64.1117 293.097 63.7999 293.422 63.3675C293.782 62.8902 293.959 62.3068 293.959 61.6243C293.959 60.7106 293.649 59.9866 293.021 59.4674C292.396 58.9428 291.542 58.6874 290.471 58.6874H287.468H287.355V58.8004V67.1763V67.2893H287.468H288.078H288.191V67.1763V64.5492H290.471C290.706 64.5492 290.959 64.5318 291.233 64.4973L293.191 67.242ZM292.444 60.0354L292.444 60.0354L292.445 60.0361C292.885 60.4014 293.111 60.925 293.111 61.6243C293.111 62.3232 292.885 62.8513 292.445 63.2248C292.002 63.5923 291.35 63.7847 290.471 63.7847H288.191V59.4639H290.471C291.35 59.4639 292.002 59.6601 292.444 60.0354Z" fill="#4E4F30" stroke="#4E4F30" stroke-width="0.226115"/>
<path d="M270.072 65.2109L270.072 65.2109L270.073 65.2118C270.466 65.8751 271.003 66.3996 271.682 66.7841L271.683 66.7846C272.363 67.1616 273.124 67.3492 273.963 67.3492C274.802 67.3492 275.563 67.1616 276.244 66.7846C276.923 66.408 277.456 65.8871 277.842 65.2233C278.236 64.5585 278.432 63.8126 278.432 62.9884C278.432 62.1641 278.236 61.4182 277.842 60.7534C277.456 60.0896 276.923 59.5688 276.244 59.1921C275.563 58.8151 274.802 58.6275 273.963 58.6275C273.124 58.6275 272.363 58.8192 271.682 59.2043C271.003 59.5809 270.466 60.1016 270.073 60.765L270.073 60.765L270.072 60.7659C269.687 61.4304 269.495 62.1721 269.495 62.9884C269.495 63.8046 269.687 64.5463 270.072 65.2109ZM277.108 61.1663L277.108 61.1669C277.424 61.7067 277.583 62.3129 277.583 62.9884C277.583 63.6637 277.424 64.2741 277.108 64.8221C276.791 65.363 276.359 65.7874 275.81 66.0966C275.262 66.4054 274.647 66.5607 273.963 66.5607C273.279 66.5607 272.66 66.4055 272.104 66.0964C271.555 65.7872 271.123 65.3629 270.806 64.8221C270.49 64.274 270.331 63.6637 270.331 62.9884C270.331 62.3129 270.49 61.7067 270.806 61.1669L270.806 61.1663C271.123 60.6175 271.555 60.1893 272.104 59.8803C272.66 59.5713 273.279 59.416 273.963 59.416C274.647 59.416 275.262 59.5713 275.81 59.8801C276.359 60.1892 276.791 60.6174 277.108 61.1663Z" fill="#4E4F30" stroke="#4E4F30" stroke-width="0.226115"/>
<path d="M255.198 66.7843L255.198 66.7846C255.879 67.1616 256.64 67.3492 257.479 67.3492C258.09 67.3492 258.658 67.2473 259.183 67.0424C259.716 66.8372 260.169 66.5368 260.541 66.1408L260.614 66.0622L260.539 65.9848L260.156 65.5899L260.077 65.508L259.996 65.5882C259.341 66.2354 258.513 66.5607 257.503 66.5607C256.819 66.5607 256.199 66.4054 255.643 66.0963C255.086 65.7869 254.65 65.3626 254.334 64.8221C254.017 64.274 253.859 63.6637 253.859 62.9884C253.859 62.3129 254.017 61.7067 254.334 61.1669L254.334 61.1669L254.334 61.1663C254.651 60.6178 255.087 60.1896 255.643 59.8804C256.199 59.5713 256.819 59.416 257.503 59.416C258.521 59.416 259.349 59.7377 259.996 60.3765L260.077 60.4568L260.156 60.3748L260.539 59.98L260.614 59.9026L260.541 59.8239C260.169 59.428 259.72 59.1315 259.194 58.9341C258.67 58.7293 258.097 58.6275 257.479 58.6275C256.64 58.6275 255.879 58.8151 255.198 59.1921L255.198 59.1924C254.526 59.5691 253.993 60.0898 253.6 60.753L253.6 60.753L253.6 60.7539C253.214 61.4186 253.022 62.1644 253.022 62.9884C253.022 63.8124 253.214 64.5581 253.6 65.2228L253.6 65.2228L253.6 65.2237C253.993 65.8869 254.526 66.4076 255.198 66.7843Z" fill="#4E4F30" stroke="#4E4F30" stroke-width="0.226115"/>
<path d="M244.099 66.6259V66.5128H243.986H238.93V63.3048H243.28H243.393V63.1918V62.6533V62.5403H243.28H238.93V59.4639H243.806H243.919V59.3508V58.8004V58.6874H243.806H238.206H238.093V58.8004V67.1763V67.2893H238.206H243.986H244.099V67.1763V66.6259Z" fill="#4E4F30" stroke="#4E4F30" stroke-width="0.226115"/>
<path d="M221.291 58.6874H221.178V58.8004V67.1763V67.2893H221.291H224.606C225.491 67.2893 226.28 67.1065 226.968 66.7376C227.664 66.3694 228.206 65.8607 228.592 65.2119L228.592 65.2114C228.978 64.5543 229.17 63.8123 229.17 62.9883C229.17 62.1645 228.978 61.4263 228.592 60.777C228.206 60.1203 227.664 59.6074 226.968 59.2391C226.28 58.8702 225.491 58.6874 224.606 58.6874H221.291ZM226.551 59.9175L226.551 59.9175L226.552 59.9181C227.124 60.2117 227.562 60.6237 227.87 61.1545C228.178 61.6857 228.334 62.2959 228.334 62.9883C228.334 63.6808 228.178 64.2909 227.87 64.8222C227.562 65.3531 227.124 65.7692 226.552 66.0709C225.98 66.3644 225.316 66.5128 224.558 66.5128H222.015V59.4639H224.558C225.316 59.4639 225.98 59.6162 226.551 59.9175Z" fill="#4E4F30" stroke="#4E4F30" stroke-width="0.226115"/>
<path d="M202.204 67.3741L202.288 67.462L202.37 67.3721L202.729 66.9773L202.799 66.8997L202.727 66.8235L201.542 65.5701C201.847 65.0582 202.075 64.4277 202.229 63.6814L202.25 63.5816L202.153 63.5508L201.662 63.3952L201.541 63.3569L201.517 63.4813C201.403 64.0647 201.232 64.5742 201.005 65.0111L198.732 62.6069C199.381 62.2189 199.847 61.8644 200.122 61.5424C200.426 61.1883 200.58 60.7877 200.58 60.3441C200.58 59.8216 200.402 59.4012 200.038 59.0975C199.685 58.788 199.209 58.6396 198.625 58.6396C197.999 58.6396 197.487 58.8005 197.103 59.1339C196.717 59.4686 196.525 59.9158 196.525 60.4638C196.525 60.8166 196.605 61.1494 196.765 61.4607L196.765 61.4607L196.766 61.4618C196.914 61.7436 197.179 62.0838 197.554 62.4809C196.82 62.921 196.287 63.3411 195.964 63.7428C195.622 64.1605 195.448 64.6281 195.448 65.1423C195.448 65.5721 195.571 65.9585 195.817 66.2975C196.062 66.6355 196.403 66.8948 196.834 67.0771C197.264 67.2594 197.75 67.3493 198.29 67.3493C198.877 67.3493 199.415 67.2472 199.901 67.0412L199.901 67.0412L199.903 67.0406C200.352 66.8427 200.744 66.5604 201.08 66.1946L202.204 67.3741ZM199.518 59.6146L199.518 59.6146L199.52 59.6161C199.723 59.7907 199.828 60.0325 199.828 60.3561C199.828 60.6512 199.717 60.9237 199.487 61.1767C199.261 61.4171 198.844 61.7181 198.227 62.0797C197.864 61.6902 197.625 61.3893 197.503 61.1745C197.376 60.9429 197.314 60.7064 197.314 60.4638C197.314 60.1164 197.427 59.8494 197.647 59.6502L197.648 59.6501C197.876 59.4427 198.197 59.3324 198.625 59.3324C199.021 59.3324 199.314 59.4313 199.518 59.6146ZM200.568 65.6499C200.015 66.2958 199.267 66.6206 198.313 66.6206C197.694 66.6206 197.197 66.4737 196.814 66.1887C196.443 65.9062 196.261 65.5443 196.261 65.0944C196.261 64.7154 196.386 64.374 196.641 64.0664C196.898 63.7655 197.366 63.4098 198.054 63L200.568 65.6499Z" fill="#4E4F30" stroke="#4E4F30" stroke-width="0.226115"/>
<path d="M177.028 58.8004V58.6874H176.915H176.305H176.192V58.8004V65.7476L170.698 58.7307L170.664 58.6874H170.609H170.095H169.982V58.8004V67.1763V67.2893H170.095H170.705H170.818V67.1763V60.2285L176.324 67.2461L176.358 67.2893H176.413H176.915H177.028V67.1763V58.8004Z" fill="#4E4F30" stroke="#4E4F30" stroke-width="0.226115"/>
<path d="M159.871 62.9112H159.758V63.0243V65.8535C159.158 66.3228 158.405 66.5607 157.49 66.5607C156.789 66.5607 156.163 66.4053 155.607 66.0966C155.05 65.7792 154.609 65.3505 154.285 64.8096C153.968 64.2615 153.81 63.6552 153.81 62.9884C153.81 62.3129 153.969 61.7067 154.285 61.1669L154.285 61.1663C154.602 60.6179 155.038 60.1898 155.594 59.8806C156.158 59.5715 156.789 59.416 157.49 59.416C158.005 59.416 158.47 59.4941 158.886 59.6483L158.886 59.6483L158.889 59.6492C159.31 59.7947 159.691 60.0363 160.03 60.3761L160.113 60.4585L160.193 60.3736L160.575 59.9668L160.65 59.8878L160.574 59.8102C160.195 59.4229 159.738 59.131 159.205 58.934C158.68 58.7292 158.104 58.6275 157.478 58.6275C156.623 58.6275 155.85 58.8149 155.162 59.1919L155.161 59.1921C154.482 59.5687 153.945 60.0894 153.552 60.753L153.552 60.753L153.551 60.7539C153.165 61.4186 152.973 62.1644 152.973 62.9884C152.973 63.8124 153.165 64.5581 153.551 65.2228L153.551 65.2228L153.552 65.2237C153.945 65.8873 154.482 66.408 155.161 66.7846L155.162 66.7849C155.85 67.1617 156.619 67.3492 157.466 67.3492C158.06 67.3492 158.623 67.2555 159.155 67.0676C159.695 66.8793 160.156 66.6041 160.535 66.2409L160.57 66.2075V66.1592V63.0243V62.9112H160.457H159.871Z" fill="#4E4F30" stroke="#4E4F30" stroke-width="0.226115"/>
<path d="M142.874 58.6874H142.761V58.8004V67.1763V67.2893H142.874H143.485H143.598V67.1763V58.8004V58.6874H143.485H142.874Z" fill="#4E4F30" stroke="#4E4F30" stroke-width="0.226115"/>
<path d="M128.457 67.0303L128.457 67.0303L128.459 67.031C129.03 67.2432 129.63 67.3492 130.257 67.3492C130.93 67.3492 131.505 67.2479 131.978 67.0405C132.448 66.8345 132.802 66.5547 133.032 66.1972C133.268 65.8436 133.386 65.4511 133.386 65.0225C133.386 64.5082 133.249 64.0878 132.962 63.7747C132.695 63.4661 132.369 63.2365 131.986 63.0865C131.612 62.9404 131.116 62.7914 130.5 62.6393L130.5 62.6393C129.951 62.5041 129.521 62.3777 129.208 62.2603C128.903 62.146 128.651 61.9832 128.448 61.7732C128.257 61.5751 128.157 61.3063 128.157 60.9542C128.157 60.4954 128.339 60.1251 128.712 59.8349C129.082 59.5455 129.64 59.3921 130.401 59.3921C130.78 59.3921 131.164 59.4501 131.553 59.5668L131.554 59.567C131.949 59.6834 132.309 59.8538 132.634 60.0781L132.745 60.1543L132.801 60.0326L133.028 59.542L133.068 59.4565L132.991 59.4021C132.653 59.1627 132.254 58.9744 131.798 58.8358C131.341 58.697 130.875 58.6275 130.401 58.6275C129.728 58.6275 129.157 58.7287 128.692 58.9365L128.692 58.9365L128.691 58.9368C128.236 59.1435 127.89 59.4279 127.661 59.7928C127.434 60.1463 127.32 60.5384 127.32 60.9662C127.32 61.4881 127.453 61.919 127.73 62.2475L127.73 62.2476L127.732 62.25C128.007 62.5583 128.337 62.788 128.72 62.9381L128.721 62.9384C129.102 63.0843 129.602 63.2332 130.218 63.3853L130.22 63.3856C130.76 63.5127 131.185 63.6351 131.498 63.7523C131.803 63.8667 132.055 64.0294 132.258 64.2395C132.449 64.4375 132.549 64.7063 132.549 65.0584C132.549 65.5075 132.364 65.8695 131.985 66.1523C131.606 66.4347 131.032 66.5846 130.245 66.5846C129.709 66.5846 129.196 66.4914 128.707 66.3052C128.225 66.1105 127.845 65.8635 127.563 65.5669L127.461 65.4594L127.385 65.5862L127.109 66.0409L127.065 66.1138L127.123 66.1763C127.449 66.5269 127.895 66.8105 128.457 67.0303Z" fill="#4E4F30" stroke="#4E4F30" stroke-width="0.226115"/>
<path d="M117.717 66.6259V66.5128H117.604H112.548V63.3048H116.898H117.011V63.1918V62.6533V62.5403H116.898H112.548V59.4639H117.425H117.538V59.3508V58.8004V58.6874H117.425H111.825H111.712V58.8004V67.1763V67.2893H111.825H117.604H117.717V67.1763V66.6259Z" fill="#4E4F30" stroke="#4E4F30" stroke-width="0.226115"/>
<path d="M94.4576 58.6874H94.3446V58.8004V67.1763V67.2893H94.4576H97.7721C98.6574 67.2893 99.4459 67.1065 100.135 66.7376C100.83 66.3694 101.372 65.8607 101.758 65.2119L101.758 65.2114C102.144 64.5543 102.336 63.8123 102.336 62.9883C102.336 62.1645 102.144 61.4263 101.758 60.777C101.372 60.1203 100.83 59.6074 100.135 59.2391C99.4459 58.8702 98.6574 58.6874 97.7721 58.6874H94.4576ZM99.7176 59.9175L99.7176 59.9175L99.7187 59.9181C100.291 60.2117 100.729 60.6237 101.037 61.1545C101.345 61.6857 101.5 62.2959 101.5 62.9883C101.5 63.6808 101.345 64.2909 101.037 64.8222C100.729 65.3531 100.29 65.7692 99.7182 66.0709C99.1464 66.3644 98.4828 66.5128 97.7242 66.5128H95.1809V59.4639H97.7242C98.4826 59.4639 99.146 59.6162 99.7176 59.9175Z" fill="#4E4F30" stroke="#4E4F30" stroke-width="0.226115"/>
<path fill-rule="evenodd" clip-rule="evenodd" d="M314.789 16.8347H55.8622V79.7007H314.789V16.8347ZM54.9724 15.8822V80.6532H315.679V15.8822H54.9724Z" fill="#C3BDA7"/>
<path d="M47.7761 0.0390625H69.8906L76.7538 48.2717V96.5044H47.7761V0.0390625Z" fill="white"/>
<path d="M18.2938 78.3001H20.0136C25.173 78.3001 26.8928 73.8778 26.8928 68.0428V28.4877C26.8928 22.6527 25.173 18.2304 20.0136 18.2304H18.2938V17.5548H50.8469C59.6301 17.5548 70.0717 21.9771 70.0717 32.6644C70.0717 41.4475 63.3153 46.6069 53.1809 48.2653C67.7377 48.5724 74.0026 55.5744 74.0026 63.4362C74.0026 75.2905 63.8681 78.9757 55.5149 78.9757H18.2938V78.3001ZM31.4993 48.8795V68.0428C31.4993 73.8778 32.3592 78.2387 41.1424 78.2387H53.488C61.7184 78.2387 69.396 73.4478 69.396 63.5591C69.396 52.9333 60.5514 48.8795 49.25 48.8795H31.4993ZM31.4993 48.2653H45.319C56.9276 48.2653 64.8509 43.413 64.8509 32.7258C64.8509 24.4339 58.4017 18.3533 44.3363 18.3533C43.4764 18.3533 42.0637 18.2919 41.1424 18.2919C32.2978 18.2919 31.4993 22.6527 31.4993 28.4877V48.2653Z" fill="#C3BDA7"/>
<path d="M48.3799 47.0955L15.1326 39.2292V50.7758L48.3799 58.6421V47.0955Z" fill="white"/>
<path d="M49.5988 16.5718L13.9138 9.98108V20.3248C13.9138 20.3248 21.334 20.0568 28.5039 21.3398C35.6737 22.6228 49.5988 26.9155 49.5988 26.9155V16.5718Z" fill="white"/>
<path d="M50.3813 87.889V73.9231C50.3813 73.9231 35.1865 76.172 28.5174 75.319C21.8483 74.466 13.9138 70.9559 13.9138 70.9559V82.2884L50.3813 87.889Z" fill="white"/>
<path d="M0.230713 67.8138L3.79313 64.1285C10.0581 74.3244 18.7184 78.5625 30.0813 78.501C41.7512 78.4396 50.1659 72.6661 50.1659 65.7255C50.1659 43.7368 3.17892 56.4509 3.17892 32.681C3.17892 24.205 11.9621 16.1588 27.6244 16.1588C36.1619 16.1588 45.8664 18.6157 50.7187 22.0552L48.0162 26.6618C44.1467 23.038 36.6533 17.5715 24.9219 17.5715C13.3134 17.5715 6.3728 23.3451 6.3728 29.8557C6.3728 52.0286 53.0527 39.2531 53.0527 63.5758C53.0527 72.1133 43.9624 79.4224 30.0199 79.4224C17.9814 79.4224 6.18854 76.8427 0.230713 67.8138Z" fill="#C3BDA7"/>
</svg>
