<svg width="349" height="107" viewBox="0 0 349 107" fill="none" xmlns="http://www.w3.org/2000/svg">
<path d="M307.432 33.6655V33.8029H307.569H308.139C308.946 33.8029 309.47 34.1438 309.801 34.7094C310.139 35.2862 310.281 36.1068 310.281 37.0645V50.1718C310.281 51.1295 310.139 51.9501 309.801 52.5269C309.47 53.0925 308.946 53.4334 308.139 53.4334H307.569H307.432V53.5708V53.7947V53.932H307.569H314.795H314.932V53.7947V53.5708V53.4334H314.795H314.225C313.418 53.4334 312.894 53.0925 312.562 52.5269C312.224 51.9501 312.082 51.1295 312.082 50.1718V46.7013C312.993 45.6331 314.242 44.1894 315.665 42.6076L324.926 53.8819L324.967 53.932H325.032H327.006H327.297L327.112 53.7075L316.89 41.2622C316.965 41.1796 317.041 41.0969 317.117 41.0142C318.717 39.2685 320.326 37.5136 321.918 36.167C323.615 34.7308 325.267 33.7826 326.844 33.7826H326.981V33.6452V33.4417V33.3043H326.844H318.58H318.443V33.4417V33.6248V33.7622H318.58C319.193 33.7622 319.738 33.8485 320.126 34.0765C320.502 34.2975 320.743 34.6583 320.743 35.2531C320.743 35.4351 320.671 35.6763 320.522 35.9766C320.374 36.2742 320.157 36.6173 319.882 36.9999C319.332 37.7648 318.559 38.6743 317.669 39.6724C317.103 40.3069 316.49 40.977 315.859 41.6672C314.596 43.0473 313.261 44.5075 312.082 45.9229V37.0645C312.082 36.1068 312.224 35.2862 312.562 34.7094C312.894 34.1438 313.418 33.8029 314.225 33.8029H314.795H314.932V33.6655V33.4417V33.3043H314.795H307.569H307.432V33.4417V33.6655Z" fill="#4E4F30" stroke="#4E4F30" stroke-width="0.274766"/>
<path d="M292.359 53.1077C290.27 53.1077 288.281 52.4501 286.815 51.0691C285.351 49.6898 284.396 47.576 284.396 44.6358C284.396 37.8641 289.736 34.1082 294.679 34.1082C296.797 34.1082 298.832 34.8007 300.336 36.2353C301.839 37.6684 302.825 39.8539 302.825 42.8651C302.825 49.3268 297.348 53.1077 292.359 53.1077ZM293.58 32.999C287.604 32.999 282.757 37.7803 282.757 43.6385C282.757 49.4974 287.604 54.2373 293.58 54.2373C299.555 54.2373 304.403 49.4974 304.403 43.6385C304.403 37.7803 299.556 32.999 293.58 32.999Z" fill="#4E4F30" stroke="#4E4F30" stroke-width="0.274766"/>
<path d="M267.684 53.1077C265.595 53.1077 263.606 52.4501 262.14 51.0691C260.676 49.6898 259.721 47.576 259.721 44.6358C259.721 37.8641 265.061 34.1082 270.004 34.1082C272.122 34.1082 274.157 34.8007 275.662 36.2353C277.164 37.6684 278.15 39.8539 278.15 42.8651C278.15 49.3268 272.673 53.1077 267.684 53.1077ZM268.905 32.999C262.929 32.999 258.082 37.7803 258.082 43.6385C258.082 49.4974 262.93 54.2373 268.905 54.2373C274.881 54.2373 279.728 49.4974 279.728 43.6385C279.728 37.7803 274.881 32.999 268.905 32.999Z" fill="#4E4F30" stroke="#4E4F30" stroke-width="0.274766"/>
<path d="M236.624 53.7947V53.932H236.761H243.986H244.124V53.7947V53.5708V53.4334H243.986H243.416C242.61 53.4334 242.085 53.0925 241.754 52.5269C241.416 51.9501 241.274 51.1295 241.274 50.1718V43.7555H243.76L252.369 53.8836L252.41 53.932H252.474H254.468H254.765L254.573 53.7057L246.115 43.7555H248.24C249.533 43.7555 251.229 43.5407 252.607 42.766C253.995 41.9859 255.053 40.6397 255.053 38.4078C255.053 36.598 254.229 35.3146 252.971 34.4895C251.72 33.6686 250.048 33.3043 248.342 33.3043H236.761H236.624V33.4417V33.6655V33.8029H236.761H237.331C238.137 33.8029 238.662 34.1438 238.993 34.7094C239.331 35.2862 239.473 36.1068 239.473 37.0645V50.1718C239.473 51.1295 239.331 51.9501 238.993 52.5269C238.662 53.0925 238.137 53.4334 237.331 53.4334H236.761H236.624V53.5708V53.7947ZM247.65 43.1755H241.274V33.8843H247.65C249.241 33.8843 250.644 34.2222 251.645 34.9519C252.639 35.6769 253.252 36.7991 253.252 38.4078C253.252 40.0693 252.637 41.2537 251.641 42.0264C250.64 42.8031 249.239 43.1755 247.65 43.1755Z" fill="#4E4F30" stroke="#4E4F30" stroke-width="0.274766"/>
<path d="M214.997 53.4334H214.859V53.5708V53.7947V53.932H214.997H227.331C228.731 53.932 230.293 53.6236 231.508 52.8071C232.731 51.9856 233.594 50.6558 233.594 48.6453C233.594 47.3037 233.059 46.0325 231.903 45.0867C230.923 44.2842 229.505 43.7224 227.607 43.5407C228.853 43.2233 229.911 42.7196 230.706 42.0219C231.715 41.136 232.292 39.9434 232.292 38.4485C232.292 36.6249 231.398 35.3329 230.136 34.5023C228.88 33.6751 227.259 33.3043 225.784 33.3043H214.997H214.859V33.4417V33.6655V33.8029H214.997H215.567C216.373 33.8029 216.898 34.1438 217.229 34.7094C217.567 35.2862 217.709 36.1068 217.709 37.0645V50.1718C217.709 51.1295 217.567 51.9501 217.229 52.5269C216.898 53.0925 216.373 53.4334 215.567 53.4334H214.997ZM219.51 50.1718V43.9591H225.255C227.114 43.9591 228.753 44.2932 229.922 45.0489C231.083 45.7988 231.793 46.9709 231.793 48.686C231.793 50.2852 231.174 51.4618 230.23 52.2411C229.283 53.0233 227.998 53.413 226.659 53.413H222.568C221.132 53.413 220.388 53.0567 219.99 52.5058C219.584 51.9431 219.51 51.1416 219.51 50.1718ZM223.952 43.4808H219.51V37.0645C219.51 36.0939 219.579 35.2928 219.983 34.7302C220.378 34.1798 221.122 33.8233 222.568 33.8233C222.719 33.8233 222.91 33.8283 223.101 33.8334L223.113 33.8337C223.299 33.8387 223.485 33.8436 223.627 33.8436C225.94 33.8436 227.606 34.3439 228.69 35.1666C229.77 35.9857 230.287 37.1343 230.287 38.4688C230.287 40.2013 229.647 41.4455 228.549 42.2612C227.444 43.0817 225.859 43.4808 223.952 43.4808Z" fill="#4E4F30" stroke="#4E4F30" stroke-width="0.274766"/>
<path d="M194.25 33.3043H194.113V33.4417V33.6452V33.7777L194.245 33.7825L194.815 33.8028C195.626 33.8318 196.152 34.1745 196.483 34.7329C196.821 35.3019 196.962 36.1069 196.962 37.0645V50.1718C196.962 51.1295 196.821 51.9554 196.482 52.5375C196.151 53.1085 195.626 53.4537 194.82 53.4537H194.25H194.113V53.5911V53.7947V53.932H194.25H211.693H211.83V53.7947V51.7797V51.5696L211.638 51.6538C208.084 53.2085 204.019 53.352 200.906 53.352C200.096 53.352 199.572 53.0285 199.242 52.4845C198.906 51.9288 198.764 51.1298 198.764 50.1718V43.7555H211.082H211.22V43.6182V42.1934V42.0561H211.082H198.764V37.0645C198.764 36.1065 198.906 35.3075 199.242 34.7518C199.572 34.2078 200.096 33.8843 200.906 33.8843C204.019 33.8843 208.084 34.0278 211.638 35.5825L211.83 35.6667V35.4566V33.4417V33.3043H211.693H194.25Z" fill="#4E4F30" stroke="#4E4F30" stroke-width="0.274766"/>
<path d="M168.97 53.7947V53.932H169.108H176.659H176.796V53.7947V53.5911V53.4537H176.659C175.902 53.4537 175.267 53.2811 174.735 52.8769C174.201 52.4713 173.756 51.8219 173.402 50.8425C172.691 48.8781 172.359 45.6334 172.359 40.5245V35.8518L187.626 53.8834L187.667 53.932H187.731H189.725H190.022L189.83 53.7058L188.275 51.8718V37.7361C188.275 36.3626 188.503 35.3733 188.945 34.7305C189.381 34.0977 190.037 33.7826 190.946 33.7826H191.084V33.6452V33.4417V33.3043H190.946H183.395H183.258V33.4417V33.6452V33.7826H183.395C184.152 33.7826 184.787 33.9552 185.319 34.3595C185.853 34.765 186.298 35.4144 186.653 36.3938C187.363 38.3582 187.695 41.6029 187.695 46.7118V51.242L172.55 33.3529L172.509 33.3043H172.446H170.451H170.155L170.346 33.5304L171.779 35.222V49.5002C171.779 50.8737 171.551 51.863 171.109 52.5058C170.673 53.1386 170.018 53.4537 169.108 53.4537H168.97V53.5911V53.7947Z" fill="#4E4F30" stroke="#4E4F30" stroke-width="0.274766"/>
<path d="M153.897 53.1077C151.809 53.1077 149.819 52.4501 148.354 51.0691C146.89 49.6898 145.934 47.576 145.934 44.6358C145.934 37.8641 151.275 34.1082 156.217 34.1082C158.335 34.1082 160.37 34.8007 161.875 36.2353C163.378 37.6684 164.364 39.8539 164.364 42.8651C164.364 49.3268 158.886 53.1077 153.897 53.1077ZM155.118 32.999C149.142 32.999 144.296 37.7803 144.296 43.6385C144.296 49.4974 149.143 54.2373 155.118 54.2373C161.094 54.2373 165.941 49.4974 165.941 43.6385C165.941 37.7803 161.095 32.999 155.118 32.999Z" fill="#4E4F30" stroke="#4E4F30" stroke-width="0.274766"/>
<path d="M123.081 35.4566V35.6738L123.277 35.5807C124.668 34.9208 125.69 34.5089 126.865 34.2552C128.015 34.0071 129.317 33.9092 131.263 33.8858V50.1718C131.263 51.1295 131.121 51.9554 130.783 52.5375C130.451 53.1085 129.926 53.4537 129.121 53.4537H128.551H128.413V53.5911V53.7947V53.932H128.551H135.776H135.914V53.7947V53.5911V53.4537H135.776H135.206C134.401 53.4537 133.876 53.1085 133.544 52.5375C133.206 51.9554 133.064 51.1295 133.064 50.1718V33.8858C135.02 33.9092 136.328 34.0071 137.48 34.2552C138.658 34.5089 139.679 34.9208 141.07 35.5807L141.266 35.6738V35.4566V33.4417V33.3043H141.129H123.218H123.081V33.4417V35.4566Z" fill="#4E4F30" stroke="#4E4F30" stroke-width="0.274766"/>
<path d="M102.312 50.1577L102.236 50.2369L102.296 50.3289C104.312 53.3834 108.286 54.2373 112.282 54.2373C116.933 54.2373 120.052 51.792 120.052 48.8489C120.052 47.8182 119.804 46.9768 119.366 46.2827C118.928 45.5896 118.306 45.0511 117.567 44.6175C116.095 43.7533 114.139 43.2935 112.21 42.8608C112.124 42.8413 112.037 42.8219 111.95 42.8025C110.1 42.3882 108.293 41.9839 106.927 41.2657C106.215 40.8912 105.63 40.4352 105.223 39.8553C104.818 39.2771 104.584 38.5676 104.584 37.6751C104.584 36.6492 105.13 35.6702 106.156 34.9428C107.184 34.2149 108.691 33.7419 110.593 33.7419C114.433 33.7419 116.884 35.5301 118.152 36.717L118.277 36.8345L118.364 36.6862L119.26 35.1598L119.323 35.051L119.221 34.9782C118.397 34.3946 117.173 33.9008 115.807 33.5528C114.438 33.2041 112.915 32.999 111.488 32.999C106.264 32.999 103.25 35.6912 103.25 38.6113C103.25 39.6199 103.5 40.4422 103.942 41.1195C104.383 41.7955 105.01 42.3192 105.753 42.7401C107.234 43.5788 109.202 44.0219 111.144 44.4419C111.217 44.4576 111.289 44.4733 111.362 44.489C113.24 44.8947 115.076 45.2913 116.462 46.0061C117.179 46.376 117.768 46.8272 118.177 47.4015C118.585 47.974 118.821 48.6767 118.821 49.5612C118.821 50.6507 118.16 51.6659 117.005 52.4176C115.851 53.1689 114.214 53.6472 112.302 53.6573C110.436 53.6674 108.801 53.3246 107.378 52.5667C105.955 51.809 104.736 50.6319 103.708 48.9601L103.616 48.8092L103.493 48.9366L102.312 50.1577Z" fill="#4E4F30" stroke="#4E4F30" stroke-width="0.274766"/>
<path d="M324.137 74.3407L324.174 74.3931H324.239H325.006H325.249L325.108 74.1954L322.893 71.0945C323.531 70.8798 324.033 70.5351 324.392 70.057C324.79 69.5292 324.986 68.8842 324.986 68.1296C324.986 67.1194 324.643 66.3189 323.948 65.7449C323.258 65.1648 322.313 64.8824 321.13 64.8824H317.809H317.684V65.0074V74.2681V74.3931H317.809H318.484H318.609V74.2681V71.3635H321.13C321.389 71.3635 321.669 71.3442 321.971 71.306L324.137 74.3407ZM323.311 66.3728L323.311 66.3728L323.312 66.3736C323.799 66.7775 324.048 67.3565 324.048 68.1296C324.048 68.9024 323.799 69.4863 323.312 69.8992C322.822 70.3055 322.101 70.5182 321.13 70.5182H318.609V65.741H321.13C322.101 65.741 322.822 65.958 323.311 66.3728Z" fill="#4E4F30" stroke="#4E4F30" stroke-width="0.25"/>
<path d="M298.576 72.095L298.576 72.095L298.577 72.096C299.011 72.8294 299.605 73.4093 300.355 73.8344L300.357 73.835C301.109 74.2518 301.95 74.4592 302.878 74.4592C303.806 74.4592 304.647 74.2518 305.399 73.835C306.15 73.4186 306.74 72.8427 307.166 72.1087C307.602 71.3738 307.818 70.5491 307.818 69.6377C307.818 68.7264 307.602 67.9017 307.166 67.1667C306.74 66.4328 306.15 65.8569 305.399 65.4405C304.647 65.0237 303.806 64.8163 302.878 64.8163C301.95 64.8163 301.108 65.0282 300.356 65.454C299.605 65.8704 299.011 66.446 298.577 67.1795L298.576 67.1795L298.576 67.1805C298.15 67.9152 297.937 68.7353 297.937 69.6377C297.937 70.5402 298.15 71.3603 298.576 72.095ZM306.355 67.6232L306.355 67.6239C306.705 68.2207 306.88 68.891 306.88 69.6377C306.88 70.3844 306.705 71.0593 306.355 71.6652C306.004 72.2632 305.527 72.7324 304.92 73.0743C304.314 73.4157 303.634 73.5874 302.878 73.5874C302.121 73.5874 301.437 73.4158 300.822 73.0741C300.215 72.7322 299.738 72.2631 299.387 71.6651C299.038 71.0592 298.862 70.3844 298.862 69.6377C298.862 68.891 299.038 68.2207 299.387 67.6239L299.387 67.6239L299.388 67.6232C299.738 67.0164 300.216 66.543 300.822 66.2013C301.437 65.8597 302.122 65.6881 302.878 65.6881C303.634 65.6881 304.314 65.8598 304.92 66.2012C305.526 66.5429 306.004 67.0163 306.355 67.6232Z" fill="#4E4F30" stroke="#4E4F30" stroke-width="0.25"/>
<path d="M282.13 73.8347L282.131 73.835C282.883 74.2518 283.724 74.4592 284.652 74.4592C285.328 74.4592 285.956 74.3466 286.536 74.12C287.126 73.8932 287.627 73.561 288.037 73.1232L288.119 73.0363L288.036 72.9507L287.613 72.5141L287.525 72.4235L287.435 72.5122C286.711 73.2278 285.795 73.5874 284.679 73.5874C283.922 73.5874 283.238 73.4157 282.623 73.074C282.007 72.7319 281.525 72.2628 281.175 71.6652C280.825 71.0592 280.65 70.3844 280.65 69.6377C280.65 68.891 280.825 68.2207 281.175 67.6239L281.175 67.6239L281.175 67.6232C281.525 67.0167 282.007 66.5434 282.623 66.2015C283.238 65.8598 283.922 65.6881 284.679 65.6881C285.805 65.6881 286.72 66.0437 287.435 66.75L287.525 66.8387L287.613 66.7481L288.036 66.3116L288.119 66.226L288.037 66.139C287.627 65.7013 287.13 65.3734 286.549 65.1553C285.969 64.9288 285.336 64.8163 284.652 64.8163C283.724 64.8163 282.883 65.0237 282.131 65.4405L282.13 65.4408C281.388 65.8573 280.799 66.433 280.364 67.1663L280.364 67.1663L280.364 67.1672C279.937 67.9022 279.725 68.7267 279.725 69.6377C279.725 70.5488 279.937 71.3733 280.364 72.1082L280.364 72.1082L280.364 72.1092C280.799 72.8425 281.388 73.4182 282.13 73.8347Z" fill="#4E4F30" stroke="#4E4F30" stroke-width="0.25"/>
<path d="M269.859 73.6595V73.5345H269.734H264.144V69.9877H268.953H269.078V69.8627V69.2673V69.1423H268.953H264.144V65.741H269.535H269.66V65.616V65.0074V64.8824H269.535H263.344H263.219V65.0074V74.2681V74.3931H263.344H269.734H269.859V74.2681V73.6595Z" fill="#4E4F30" stroke="#4E4F30" stroke-width="0.25"/>
<path d="M244.642 64.8824H244.517V65.0074V74.2681V74.3931H244.642H248.307C249.286 74.3931 250.157 74.1909 250.919 73.783C251.688 73.3759 252.287 72.8135 252.714 72.0962L252.714 72.0956C253.141 71.3692 253.353 70.5488 253.353 69.6378C253.353 68.7269 253.141 67.9108 252.714 67.1929C252.287 66.4668 251.688 65.8997 250.919 65.4924C250.157 65.0846 249.285 64.8824 248.307 64.8824H244.642ZM250.458 66.2425L250.458 66.2425L250.459 66.2431C251.091 66.5678 251.576 67.0233 251.916 67.6102C252.256 68.1976 252.428 68.8722 252.428 69.6378C252.428 70.4033 252.256 71.0779 251.916 71.6653C251.576 72.2523 251.091 72.7124 250.458 73.0459C249.826 73.3704 249.092 73.5345 248.254 73.5345H245.442V65.741H248.254C249.092 65.741 249.826 65.9094 250.458 66.2425Z" fill="#4E4F30" stroke="#4E4F30" stroke-width="0.25"/>
<path d="M223.539 74.4866L223.631 74.5839L223.722 74.4845L224.119 74.0479L224.197 73.9622L224.117 73.878L222.807 72.4922C223.144 71.9262 223.396 71.229 223.567 70.4039L223.589 70.2936L223.482 70.2595L222.939 70.0875L222.806 70.0452L222.779 70.1827C222.653 70.8277 222.464 71.391 222.213 71.8741L219.7 69.2159C220.417 68.7869 220.933 68.395 221.237 68.039C221.573 67.6475 221.743 67.2046 221.743 66.7141C221.743 66.1364 221.546 65.6716 221.144 65.3359C220.754 64.9936 220.228 64.8296 219.581 64.8296C218.889 64.8296 218.324 65.0075 217.898 65.3761C217.471 65.7461 217.26 66.2406 217.26 66.8464C217.26 67.2365 217.348 67.6045 217.525 67.9486L217.525 67.9486L217.526 67.9499C217.69 68.2615 217.983 68.6375 218.398 69.0767C217.586 69.5632 216.997 70.0277 216.64 70.4719C216.261 70.9336 216.069 71.4506 216.069 72.0191C216.069 72.4944 216.205 72.9215 216.477 73.2964C216.748 73.6701 217.124 73.9567 217.601 74.1583C218.077 74.3599 218.615 74.4593 219.211 74.4593C219.86 74.4593 220.455 74.3464 220.992 74.1186L220.992 74.1186L220.994 74.1179C221.491 73.8992 221.925 73.5871 222.296 73.1827L223.539 74.4866ZM220.569 65.9076L220.569 65.9076L220.571 65.9092C220.795 66.1023 220.911 66.3696 220.911 66.7273C220.911 67.0536 220.789 67.355 220.534 67.6346C220.285 67.9004 219.824 68.2332 219.141 68.633C218.74 68.2024 218.476 67.8697 218.341 67.6322C218.201 67.3761 218.132 67.1147 218.132 66.8464C218.132 66.4623 218.257 66.1671 218.501 65.947L218.501 65.9468C218.754 65.7175 219.109 65.5955 219.581 65.5955C220.019 65.5955 220.343 65.7049 220.569 65.9076ZM221.729 72.5804C221.118 73.2945 220.292 73.6536 219.237 73.6536C218.552 73.6536 218.002 73.4911 217.579 73.176C217.169 72.8638 216.968 72.4636 216.968 71.9662C216.968 71.5472 217.106 71.1696 217.388 70.8296C217.672 70.4969 218.189 70.1036 218.95 69.6506L221.729 72.5804Z" fill="#4E4F30" stroke="#4E4F30" stroke-width="0.25"/>
<path d="M195.703 65.0074V64.8824H195.578H194.904H194.779V65.0074V72.6885L188.705 64.9304L188.667 64.8824H188.606H188.038H187.913V65.0074V74.2681V74.3931H188.038H188.712H188.837V74.2681V66.5864L194.924 74.3452L194.962 74.3931H195.023H195.578H195.703V74.2681V65.0074Z" fill="#4E4F30" stroke="#4E4F30" stroke-width="0.25"/>
<path d="M176.734 69.5524H176.609V69.6774V72.8055C175.946 73.3244 175.113 73.5874 174.101 73.5874C173.327 73.5874 172.634 73.4156 172.019 73.0743C171.403 72.7233 170.917 72.2494 170.557 71.6513C170.208 71.0453 170.032 70.375 170.032 69.6377C170.032 68.891 170.208 68.2207 170.558 67.6239L170.558 67.6239L170.558 67.6232C170.908 67.0168 171.39 66.5435 172.005 66.2017C172.629 65.8599 173.327 65.6881 174.101 65.6881C174.671 65.6881 175.185 65.7743 175.645 65.9449L175.645 65.9449L175.648 65.9458C176.114 66.1068 176.534 66.3739 176.91 66.7495L177.001 66.8406L177.089 66.7468L177.513 66.297L177.595 66.2096L177.511 66.1239C177.092 65.6957 176.587 65.3729 175.998 65.1552C175.417 64.9287 174.78 64.8163 174.088 64.8163C173.143 64.8163 172.288 65.0235 171.527 65.4402L171.527 65.4405C170.776 65.8569 170.182 66.4326 169.747 67.1663L169.747 67.1663L169.746 67.1672C169.32 67.9022 169.108 68.7267 169.108 69.6377C169.108 70.5488 169.32 71.3733 169.746 72.1082L169.746 72.1082L169.747 72.1092C170.182 72.8429 170.776 73.4186 171.527 73.835L171.527 73.8353C172.288 74.2519 173.138 74.4592 174.075 74.4592C174.732 74.4592 175.354 74.3556 175.942 74.1478C176.539 73.9397 177.049 73.6354 177.468 73.2339L177.507 73.197V73.1435V69.6774V69.5524H177.382H176.734Z" fill="#4E4F30" stroke="#4E4F30" stroke-width="0.25"/>
<path d="M157.942 64.8824H157.817V65.0074V74.2681V74.3931H157.942H158.617H158.742V74.2681V65.0074V64.8824H158.617H157.942Z" fill="#4E4F30" stroke="#4E4F30" stroke-width="0.25"/>
<path d="M142.002 74.1066L142.002 74.1067L142.004 74.1074C142.636 74.3421 143.299 74.4592 143.992 74.4592C144.736 74.4592 145.372 74.3473 145.894 74.1179C146.414 73.8902 146.806 73.5808 147.06 73.1856C147.321 72.7946 147.451 72.3606 147.451 71.8867C147.451 71.3181 147.299 70.8533 146.983 70.5071C146.687 70.166 146.327 69.9121 145.903 69.7462C145.49 69.5847 144.942 69.42 144.26 69.2518L144.26 69.2518C143.654 69.1024 143.178 68.9626 142.832 68.8328C142.495 68.7064 142.216 68.5265 141.992 68.2942C141.781 68.0752 141.67 67.7781 141.67 67.3887C141.67 66.8814 141.872 66.472 142.283 66.1511C142.693 65.8313 143.309 65.6616 144.151 65.6616C144.57 65.6616 144.995 65.7258 145.425 65.8548L145.425 65.855C145.863 65.9837 146.261 66.1721 146.62 66.42L146.742 66.5043L146.804 66.3697L147.056 65.8273L147.1 65.7328L147.015 65.6727C146.64 65.408 146.2 65.1998 145.695 65.0466C145.19 64.8931 144.675 64.8163 144.151 64.8163C143.407 64.8163 142.776 64.9282 142.261 65.1579L142.261 65.1579L142.26 65.1582C141.757 65.3868 141.375 65.7012 141.122 66.1046C140.871 66.4955 140.745 66.929 140.745 67.402C140.745 67.979 140.892 68.4555 141.198 68.8187L141.198 68.8187L141.2 68.8213C141.504 69.1623 141.869 69.4162 142.293 69.5822L142.294 69.5825C142.715 69.7438 143.267 69.9084 143.949 70.0766L143.95 70.0769C144.548 70.2175 145.018 70.3528 145.364 70.4824C145.701 70.6088 145.98 70.7887 146.204 71.021C146.415 71.24 146.526 71.5371 146.526 71.9264C146.526 72.423 146.322 72.8232 145.902 73.1359C145.483 73.4481 144.848 73.6139 143.979 73.6139C143.386 73.6139 142.819 73.5108 142.278 73.305C141.745 73.0897 141.325 72.8166 141.014 72.4886L140.901 72.3698L140.816 72.51L140.512 73.0127L140.463 73.0933L140.527 73.1625C140.887 73.5501 141.381 73.8636 142.002 74.1066Z" fill="#4E4F30" stroke="#4E4F30" stroke-width="0.25"/>
<path d="M130.128 73.6595V73.5345H130.003H124.412V69.9877H129.222H129.347V69.8627V69.2673V69.1423H129.222H124.412V65.741H129.804H129.929V65.616V65.0074V64.8824H129.804H123.613H123.488V65.0074V74.2681V74.3931H123.613H130.003H130.128V74.2681V73.6595Z" fill="#4E4F30" stroke="#4E4F30" stroke-width="0.25"/>
<path d="M104.411 64.8824H104.286V65.0074V74.2681V74.3931H104.411H108.075C109.054 74.3931 109.926 74.1909 110.688 73.783C111.456 73.3759 112.056 72.8135 112.482 72.0962L112.483 72.0956C112.91 71.3692 113.122 70.5488 113.122 69.6378C113.122 68.7269 112.91 67.9108 112.483 67.1929C112.056 66.4668 111.457 65.8997 110.687 65.4924C109.926 65.0846 109.054 64.8824 108.075 64.8824H104.411ZM110.226 66.2425L110.226 66.2425L110.228 66.2431C110.86 66.5678 111.345 67.0233 111.685 67.6102C112.025 68.1976 112.197 68.8722 112.197 69.6378C112.197 70.4033 112.025 71.0779 111.685 71.6653C111.344 72.2523 110.86 72.7124 110.227 73.0459C109.595 73.3704 108.861 73.5345 108.023 73.5345H105.211V65.741H108.023C108.861 65.741 109.594 65.9094 110.226 66.2425Z" fill="#4E4F30" stroke="#4E4F30" stroke-width="0.25"/>
<path fill-rule="evenodd" clip-rule="evenodd" d="M348.016 18.6089H61.7385V88.1154H348.016V18.6089ZM60.7548 17.5558V89.1686H349V17.5558H60.7548Z" fill="#C3BDA7"/>
<path d="M52.7983 0.0390625H77.2488L84.8369 53.3666V106.694H52.7983V0.0390625Z" fill="white"/>
<path d="M20.2018 86.5669H22.1032C27.8076 86.5669 29.709 81.6774 29.709 75.2261V31.4928C29.709 25.0415 27.8076 20.152 22.1032 20.152H20.2018V19.405H56.1935C65.9044 19.405 77.4489 24.2945 77.4489 36.1106C77.4489 45.8216 69.979 51.5259 58.774 53.3595C74.8684 53.699 81.7951 61.4406 81.7951 70.1329C81.7951 83.2394 70.5902 87.3139 61.3545 87.3139H20.2018V86.5669ZM34.8022 54.0385V75.2261C34.8022 81.6774 35.7529 86.499 45.4639 86.499H59.1136C68.2133 86.499 76.7019 81.2021 76.7019 70.2688C76.7019 58.5205 66.9231 54.0385 54.4278 54.0385H34.8022ZM34.8022 53.3595H50.0817C62.9165 53.3595 71.6767 47.9947 71.6767 36.1785C71.6767 27.0108 64.5463 20.2878 48.9951 20.2878C48.0444 20.2878 46.4825 20.2199 45.4639 20.2199C35.685 20.2199 34.8022 25.0415 34.8022 31.4928V53.3595Z" fill="#4E4F30"/>
<path d="M53.4659 52.0661L16.7067 43.3689V56.1351L53.4659 64.8323V52.0661Z" fill="white"/>
<path d="M54.8135 18.3181L15.3591 11.0312V22.4676C15.3591 22.4676 23.5631 22.1713 31.4903 23.5898C39.4175 25.0084 54.8135 29.7545 54.8135 29.7545V18.3181Z" fill="white"/>
<path d="M55.6787 97.1686V81.7275C55.6787 81.7275 38.8788 84.2139 31.5053 83.2708C24.1317 82.3277 15.3591 78.4469 15.3591 78.4469V90.9764L55.6787 97.1686Z" fill="white"/>
<path d="M0.230713 74.9729L4.16943 70.8984C11.0961 82.1713 20.6713 86.857 33.2344 86.7891C46.1371 86.7212 55.4406 80.3377 55.4406 72.664C55.4406 48.3526 3.49034 62.4098 3.49034 36.1291C3.49034 26.7576 13.2013 17.8616 30.5181 17.8616C39.9574 17.8616 50.687 20.5779 56.0518 24.3808L53.0638 29.474C48.7855 25.4674 40.5007 19.4235 27.5301 19.4235C14.6953 19.4235 7.0216 25.8069 7.0216 33.0052C7.0216 57.5203 58.6323 43.3953 58.6323 70.2872C58.6323 79.7265 48.5818 87.8077 33.1665 87.8077C19.8564 87.8077 6.81787 84.9555 0.230713 74.9729Z" fill="#4E4F30"/>
</svg>
