<svg width="1172" height="324" viewBox="0 0 1172 324" fill="none" xmlns="http://www.w3.org/2000/svg">
<path fill-rule="evenodd" clip-rule="evenodd" d="M1168 4H4V268H1168V4ZM0 0V272H1172V0H0Z" fill="black"/>
<path d="M1011.68 87.1H1008.88V86H1044.38V87.1H1041.58C1033.18 87.1 1030.38 94.3 1030.38 103.8V149.2C1048.18 127.5 1074.28 103.3 1074.28 94.9C1074.28 88.6 1069.08 86.9 1062.98 86.9V86H1103.58V87C1087.58 87 1070.48 106.2 1053.78 124.4L1104.38 186H1094.68L1048.68 130C1041.38 138.1 1034.98 145.5 1030.38 150.9V168.2C1030.38 177.7 1033.18 184.9 1041.58 184.9H1044.38V186H1008.88V184.9H1011.68C1020.08 184.9 1022.88 177.7 1022.88 168.2V103.8C1022.88 94.3 1020.08 87.1 1011.68 87.1Z" fill="black"/>
<path d="M899.581 141C899.581 170.2 918.581 183.3 939.381 183.3C964.181 183.3 991.481 164.5 991.481 132.3C991.481 102.4 971.881 88.6 950.781 88.6C926.181 88.6 899.581 107.3 899.581 141ZM892.881 136.1C892.881 107.7 916.381 84.5 945.381 84.5C974.381 84.5 997.881 107.7 997.881 136.1C997.881 164.5 974.381 187.5 945.381 187.5C916.381 187.5 892.881 164.5 892.881 136.1Z" fill="black"/>
<path d="M778.585 141C778.585 170.2 797.585 183.3 818.385 183.3C843.185 183.3 870.485 164.5 870.485 132.3C870.485 102.4 850.885 88.6 829.785 88.6C805.185 88.6 778.585 107.3 778.585 141ZM771.885 136.1C771.885 107.7 795.385 84.5 824.385 84.5C853.385 84.5 876.885 107.7 876.885 136.1C876.885 164.5 853.385 187.5 824.385 187.5C795.385 187.5 771.885 164.5 771.885 136.1Z" fill="black"/>
<path d="M666.69 186V184.9H669.49C677.89 184.9 680.69 177.7 680.69 168.2V103.8C680.69 94.3 677.89 87.1 669.49 87.1H666.69V86H723.59C740.19 86 755.89 93.1 755.89 110.4C755.89 131.8 735.69 136 723.09 136H711.19L753.69 186H743.89L701.39 136H688.19V168.2C688.19 177.7 690.99 184.9 699.39 184.9H702.19V186H666.69ZM688.19 134.5H720.19C735.99 134.5 748.39 127.1 748.39 110.4C748.39 94.2 735.99 87.5 720.19 87.5H688.19V134.5Z" fill="black"/>
<path d="M566.983 184.9H569.783C578.183 184.9 580.983 177.7 580.983 168.2V103.8C580.983 94.3 578.183 87.1 569.783 87.1H566.983V86H619.983C634.283 86 651.283 93.2 651.283 110.6C651.283 124.9 640.283 133.3 623.783 136C647.483 136.5 657.683 147.9 657.683 160.7C657.683 180 641.183 186 627.583 186H566.983V184.9ZM588.483 137V168.2C588.483 177.7 589.883 184.8 604.183 184.8H624.283C637.683 184.8 650.183 177 650.183 160.9C650.183 143.6 635.783 137 617.383 137H588.483ZM588.483 136H610.983C629.883 136 642.783 128.1 642.783 110.7C642.783 97.2 632.283 87.3 609.383 87.3C607.983 87.3 605.683 87.2 604.183 87.2C589.783 87.2 588.483 94.3 588.483 103.8V136Z" fill="black"/>
<path d="M470.303 86H556.003V95.9C538.403 88.2 518.303 87.5 503.003 87.5C494.603 87.5 491.803 94.3 491.803 103.8V129H553.003V136H491.803V168.2C491.803 177.7 494.603 184.5 503.003 184.5C518.303 184.5 538.403 183.8 556.003 176.1V186H470.303V185H473.103C481.503 185 484.303 177.7 484.303 168.2V103.8C484.303 94.3 481.503 87.4 473.103 87.1L470.303 87V86Z" fill="black"/>
<path d="M357.022 186V185C366.322 185 370.822 178.5 370.822 164.9V94.5L363.622 86H373.422L449.022 175.3V151.2C449.022 101 442.522 87 427.222 87V86H464.322V87C455.022 87 450.522 93.5 450.522 107.1V176.8L458.322 186H448.522L372.322 96V120.8C372.322 171 378.822 185 394.122 185V186H357.022Z" fill="black"/>
<path d="M247.726 141C247.726 170.2 266.726 183.3 287.526 183.3C312.326 183.3 339.626 164.5 339.626 132.3C339.626 102.4 320.026 88.6 298.926 88.6C274.326 88.6 247.726 107.3 247.726 141ZM241.026 136.1C241.026 107.7 264.526 84.5 293.526 84.5C322.526 84.5 346.026 107.7 346.026 136.1C346.026 164.5 322.526 187.5 293.526 187.5C264.526 187.5 241.026 164.5 241.026 136.1Z" fill="black"/>
<path d="M146.963 95.9V86H234.963V95.9C221.263 89.4 214.663 87.7 194.663 87.5V168.2C194.663 177.7 197.463 185 205.863 185H208.663V186H173.163V185H175.963C184.363 185 187.163 177.7 187.163 168.2V87.5C167.263 87.7 160.663 89.4 146.963 95.9Z" fill="black"/>
<path d="M50.01 168.6L55.81 162.6C66.01 179.2 80.11 186.1 98.61 186C117.61 185.9 131.31 176.5 131.31 165.2C131.31 129.4 54.81 150.1 54.81 111.4C54.81 97.6 69.11 84.5 94.61 84.5C108.51 84.5 124.31 88.5 132.21 94.1L127.81 101.6C121.51 95.7 109.31 86.8 90.21 86.8C71.31 86.8 60.01 96.2 60.01 106.8C60.01 142.9 136.01 122.1 136.01 161.7C136.01 175.6 121.21 187.5 98.51 187.5C78.91 187.5 59.71 183.3 50.01 168.6Z" fill="black"/>
<path d="M480 220H1142V324H480V220Z" fill="white"/>
<path d="M1087.21 288.5L1076.35 273.29C1074.75 273.507 1073.27 273.615 1071.93 273.615H1058.93V288.5H1055.62V243H1071.93C1077.65 243 1082.14 244.365 1085.39 247.095C1088.64 249.782 1090.26 253.53 1090.26 258.34C1090.26 261.937 1089.33 264.97 1087.47 267.44C1085.65 269.867 1083.02 271.578 1079.6 272.575L1090.98 288.5H1087.21ZM1071.93 270.69C1076.78 270.69 1080.49 269.628 1083.05 267.505C1085.6 265.338 1086.88 262.283 1086.88 258.34C1086.88 254.397 1085.6 251.363 1083.05 249.24C1080.49 247.073 1076.78 245.99 1071.93 245.99H1058.93V270.69H1071.93Z" fill="black"/>
<path d="M1020.46 288.825C1016 288.825 1011.97 287.828 1008.37 285.835C1004.77 283.798 1001.93 281.025 999.854 277.515C997.817 274.005 996.799 270.083 996.799 265.75C996.799 261.417 997.817 257.495 999.854 253.985C1001.93 250.475 1004.77 247.723 1008.37 245.73C1011.97 243.693 1016 242.675 1020.46 242.675C1024.92 242.675 1028.95 243.672 1032.55 245.665C1036.15 247.658 1038.96 250.41 1041 253.92C1043.08 257.43 1044.12 261.373 1044.12 265.75C1044.12 270.127 1043.08 274.07 1041 277.58C1038.96 281.09 1036.15 283.842 1032.55 285.835C1028.95 287.828 1024.92 288.825 1020.46 288.825ZM1020.46 285.77C1024.27 285.77 1027.72 284.903 1030.79 283.17C1033.87 281.437 1036.3 279.053 1038.07 276.02C1039.85 272.943 1040.74 269.52 1040.74 265.75C1040.74 261.98 1039.85 258.578 1038.07 255.545C1036.3 252.468 1033.87 250.063 1030.79 248.33C1027.72 246.597 1024.27 245.73 1020.46 245.73C1016.65 245.73 1013.18 246.597 1010.06 248.33C1006.98 250.063 1004.56 252.468 1002.78 255.545C1001 258.578 1000.11 261.98 1000.11 265.75C1000.11 269.52 1001 272.943 1002.78 276.02C1004.56 279.053 1006.98 281.437 1010.06 283.17C1013.18 284.903 1016.65 285.77 1020.46 285.77Z" fill="black"/>
<path d="M974.817 288.825C970.354 288.825 966.324 287.828 962.727 285.835C959.174 283.842 956.357 281.09 954.277 277.58C952.241 274.07 951.222 270.127 951.222 265.75C951.222 261.373 952.241 257.43 954.277 253.92C956.357 250.41 959.174 247.658 962.727 245.665C966.324 243.672 970.354 242.675 974.817 242.675C978.111 242.675 981.144 243.217 983.917 244.3C986.691 245.34 989.052 246.9 991.002 248.98L988.922 251.125C985.282 247.528 980.624 245.73 974.947 245.73C971.134 245.73 967.667 246.597 964.547 248.33C961.427 250.063 958.979 252.468 957.202 255.545C955.426 258.578 954.537 261.98 954.537 265.75C954.537 269.52 955.426 272.943 957.202 276.02C958.979 279.053 961.427 281.437 964.547 283.17C967.667 284.903 971.134 285.77 974.947 285.77C980.581 285.77 985.239 283.95 988.922 280.31L991.002 282.455C989.052 284.535 986.669 286.117 983.852 287.2C981.079 288.283 978.067 288.825 974.817 288.825Z" fill="black"/>
<path d="M943.745 285.51V288.5H912.35V243H942.77V245.99H915.665V263.93H939.91V266.855H915.665V285.51H943.745Z" fill="black"/>
<path d="M858.649 243H876.654C881.377 243 885.559 243.975 889.199 245.925C892.882 247.875 895.742 250.583 897.779 254.05C899.815 257.473 900.834 261.373 900.834 265.75C900.834 270.127 899.815 274.048 897.779 277.515C895.742 280.938 892.882 283.625 889.199 285.575C885.559 287.525 881.377 288.5 876.654 288.5H858.649V243ZM876.394 285.51C880.597 285.51 884.302 284.687 887.509 283.04C890.715 281.35 893.185 279.01 894.919 276.02C896.652 273.03 897.519 269.607 897.519 265.75C897.519 261.893 896.652 258.47 894.919 255.48C893.185 252.49 890.715 250.172 887.509 248.525C884.302 246.835 880.597 245.99 876.394 245.99H861.964V285.51H876.394Z" fill="black"/>
<path d="M831.342 289.15L824.777 282.26C822.913 284.427 820.703 286.073 818.147 287.2C815.59 288.283 812.752 288.825 809.632 288.825C806.772 288.825 804.215 288.348 801.962 287.395C799.708 286.442 797.953 285.098 796.697 283.365C795.44 281.632 794.812 279.66 794.812 277.45C794.812 274.807 795.7 272.402 797.477 270.235C799.253 268.025 802.287 265.663 806.577 263.15L806.512 263.02C804.258 260.68 802.72 258.73 801.897 257.17C801.073 255.567 800.662 253.855 800.662 252.035C800.662 249.218 801.637 246.965 803.587 245.275C805.537 243.585 808.158 242.74 811.452 242.74C814.528 242.74 816.955 243.52 818.732 245.08C820.552 246.597 821.462 248.698 821.462 251.385C821.462 253.638 820.682 255.675 819.122 257.495C817.605 259.272 814.918 261.287 811.062 263.54L824.517 277.775C825.99 275.175 827.073 272.098 827.767 268.545L830.432 269.39C829.565 273.593 828.265 277.082 826.532 279.855L833.292 287.005L831.342 289.15ZM803.717 252.035C803.717 253.465 804.085 254.852 804.822 256.195C805.558 257.495 807.01 259.293 809.177 261.59C812.773 259.51 815.243 257.755 816.587 256.325C817.93 254.852 818.602 253.227 818.602 251.45C818.602 249.543 817.973 248.048 816.717 246.965C815.46 245.838 813.705 245.275 811.452 245.275C809.025 245.275 807.118 245.903 805.732 247.16C804.388 248.373 803.717 249.998 803.717 252.035ZM809.762 286.095C815.308 286.095 819.663 284.123 822.827 280.18L808.462 265.035C804.475 267.375 801.723 269.433 800.207 271.21C798.733 272.987 797.997 274.98 797.997 277.19C797.997 279.833 799.08 281.978 801.247 283.625C803.457 285.272 806.295 286.095 809.762 286.095Z" fill="black"/>
<path d="M766.778 243V288.5H764.048L733.043 248.98V288.5H729.728V243H732.523L763.463 282.52V243H766.778Z" fill="black"/>
<path d="M711.954 265.945H715.139V282.975C713.146 284.882 710.719 286.333 707.859 287.33C705.043 288.327 702.053 288.825 698.889 288.825C694.383 288.825 690.309 287.828 686.669 285.835C683.073 283.842 680.234 281.09 678.154 277.58C676.118 274.07 675.099 270.127 675.099 265.75C675.099 261.373 676.118 257.43 678.154 253.92C680.234 250.41 683.073 247.658 686.669 245.665C690.309 243.672 694.404 242.675 698.954 242.675C702.291 242.675 705.346 243.217 708.119 244.3C710.936 245.34 713.341 246.878 715.334 248.915L713.254 251.125C711.348 249.218 709.203 247.853 706.819 247.03C704.479 246.163 701.879 245.73 699.019 245.73C695.119 245.73 691.588 246.597 688.424 248.33C685.304 250.063 682.856 252.468 681.079 255.545C679.303 258.578 678.414 261.98 678.414 265.75C678.414 269.477 679.303 272.878 681.079 275.955C682.899 278.988 685.369 281.393 688.489 283.17C691.609 284.903 695.119 285.77 699.019 285.77C704.219 285.77 708.531 284.383 711.954 281.61V265.945Z" fill="black"/>
<path d="M660.284 243H663.599V288.5H660.284V243Z" fill="black"/>
<path d="M632.635 288.825C629.298 288.825 626.113 288.262 623.08 287.135C620.09 285.965 617.75 284.47 616.06 282.65L617.555 280.18C619.158 281.87 621.303 283.257 623.99 284.34C626.72 285.38 629.58 285.9 632.57 285.9C636.903 285.9 640.175 285.077 642.385 283.43C644.595 281.783 645.7 279.638 645.7 276.995C645.7 274.958 645.115 273.333 643.945 272.12C642.775 270.907 641.323 269.975 639.59 269.325C637.857 268.675 635.517 268.003 632.57 267.31C629.233 266.487 626.547 265.685 624.51 264.905C622.517 264.125 620.805 262.933 619.375 261.33C617.988 259.683 617.295 257.495 617.295 254.765C617.295 252.555 617.88 250.54 619.05 248.72C620.22 246.857 621.997 245.383 624.38 244.3C626.807 243.217 629.818 242.675 633.415 242.675C635.928 242.675 638.398 243.043 640.825 243.78C643.252 244.517 645.353 245.513 647.13 246.77L645.895 249.435C644.075 248.178 642.06 247.225 639.85 246.575C637.683 245.925 635.538 245.6 633.415 245.6C629.212 245.6 626.027 246.445 623.86 248.135C621.693 249.825 620.61 252.013 620.61 254.7C620.61 256.737 621.195 258.362 622.365 259.575C623.535 260.788 624.987 261.72 626.72 262.37C628.453 263.02 630.815 263.713 633.805 264.45C637.142 265.273 639.807 266.075 641.8 266.855C643.793 267.635 645.483 268.827 646.87 270.43C648.3 271.99 649.015 274.113 649.015 276.8C649.015 279.01 648.408 281.025 647.195 282.845C646.025 284.665 644.205 286.117 641.735 287.2C639.265 288.283 636.232 288.825 632.635 288.825Z" fill="black"/>
<path d="M608.589 285.51V288.5H577.194V243H607.614V245.99H580.509V263.93H604.754V266.855H580.509V285.51H608.589Z" fill="black"/>
<path d="M523.492 243H541.497C546.221 243 550.402 243.975 554.042 245.925C557.726 247.875 560.586 250.583 562.622 254.05C564.659 257.473 565.677 261.373 565.677 265.75C565.677 270.127 564.659 274.048 562.622 277.515C560.586 280.938 557.726 283.625 554.042 285.575C550.402 287.525 546.221 288.5 541.497 288.5H523.492V243ZM541.237 285.51C545.441 285.51 549.146 284.687 552.352 283.04C555.559 281.35 558.029 279.01 559.762 276.02C561.496 273.03 562.362 269.607 562.362 265.75C562.362 261.893 561.496 258.47 559.762 255.48C558.029 252.49 555.559 250.172 552.352 248.525C549.146 246.835 545.441 245.99 541.237 245.99H526.807V285.51H541.237Z" fill="black"/>
</svg>
